<?xml version="1.0" encoding="UTF-8"?>
<svg version="1.1" xmlns="http://www.w3.org/2000/svg" width="600" height="600">
<path d="M0 0 C4.78353235 3.72289795 9.14087247 7.83928188 13.3125 12.23046875 C13.90417969 11.61558594 14.49585938 11.00070313 15.10546875 10.3671875 C15.89566406 9.55894531 16.68585938 8.75070313 17.5 7.91796875 C18.27730469 7.11746094 19.05460937 6.31695312 19.85546875 5.4921875 C25.57156736 0.23046875 25.57156736 0.23046875 29.3125 0.23046875 C29.3125 -0.42953125 29.3125 -1.08953125 29.3125 -1.76953125 C42.1270098 -6.24528519 54.4361764 -5.7978783 67.3125 -1.76953125 C67.3125 -1.10953125 67.3125 -0.44953125 67.3125 0.23046875 C68.01375 0.49859375 68.715 0.76671875 69.4375 1.04296875 C70.38625 1.43484375 71.335 1.82671875 72.3125 2.23046875 C73.281875 2.62234375 74.25125 3.01421875 75.25 3.41796875 C79.18709896 5.74808854 81.52935269 8.66046304 84.3125 12.23046875 C84.96605469 13.00777344 85.61960937 13.78507812 86.29296875 14.5859375 C88.39800995 17.34244212 89.94845876 20.06887481 91.5 23.16796875 C92.26376953 24.66650391 92.26376953 24.66650391 93.04296875 26.1953125 C97.36931886 36.53861723 96.11359691 49.60130636 93.3125 60.23046875 C92.6525 60.23046875 91.9925 60.23046875 91.3125 60.23046875 C91.250625 61.01421875 91.18875 61.79796875 91.125 62.60546875 C89.11326162 71.58091689 83.65655835 78.91625064 78.3125 86.23046875 C77.43733504 87.50118849 76.56231642 88.77200904 75.6875 90.04296875 C73.41816234 93.08865877 71.06160569 95.61881834 68.3125 98.23046875 C67.508125 99.05546875 66.70375 99.88046875 65.875 100.73046875 C63.14124288 103.39754887 60.24572554 105.78611413 57.3125 108.23046875 C56.52875 109.02066406 55.745 109.81085938 54.9375 110.625 C50.68430258 114.8465516 45.99314506 118.49660398 41.3125 122.23046875 C40.79059082 122.65054199 40.26868164 123.07061523 39.73095703 123.50341797 C21.77700588 137.91145009 21.77700588 137.91145009 12.6875 140.10546875 C7.39803946 138.73412713 3.60026496 135.51775522 -0.6875 132.23046875 C-1.698125 131.57046875 -2.70875 130.91046875 -3.75 130.23046875 C-12.33634545 124.38444632 -20.11968702 117.51808031 -27.95605469 110.72265625 C-29.14865317 109.69485564 -30.34762952 108.67442461 -31.55175781 107.66015625 C-34.65231052 105.04329632 -37.56785859 102.4696343 -40.1875 99.35546875 C-42.79751785 96.27822212 -42.79751785 96.27822212 -45.47265625 93.2578125 C-49.73884713 88.54156192 -53.28947269 83.59972737 -56.6875 78.23046875 C-57.15414062 77.51375 -57.62078125 76.79703125 -58.1015625 76.05859375 C-63.6875 67.36935764 -63.6875 67.36935764 -63.6875 62.23046875 C-64.3475 62.23046875 -65.0075 62.23046875 -65.6875 62.23046875 C-66.19688345 59.73206421 -66.69513114 57.23223487 -67.1875 54.73046875 C-67.33058594 54.034375 -67.47367188 53.33828125 -67.62109375 52.62109375 C-69.10251383 45.00236192 -68.94915353 38.36430072 -67.1875 30.73046875 C-66.9090625 29.50328125 -66.630625 28.27609375 -66.34375 27.01171875 C-66.01890625 25.635 -66.01890625 25.635 -65.6875 24.23046875 C-65.0275 24.23046875 -64.3675 24.23046875 -63.6875 24.23046875 C-63.39875 23.32296875 -63.11 22.41546875 -62.8125 21.48046875 C-61.92218224 18.90843967 -60.97255587 16.61700109 -59.6875 14.23046875 C-59.0275 14.23046875 -58.3675 14.23046875 -57.6875 14.23046875 C-57.460625 13.67359375 -57.23375 13.11671875 -57 12.54296875 C-52.27612071 4.21994333 -42.3846362 -0.52942169 -33.6875 -3.76953125 C-23.02054822 -6.41316055 -9.36169407 -6.1640224 0 0 Z M-28.6875 11.23046875 C-28.6875 11.56046875 -28.6875 11.89046875 -28.6875 12.23046875 C-26.7075 12.23046875 -24.7275 12.23046875 -22.6875 12.23046875 C-22.6875 11.90046875 -22.6875 11.57046875 -22.6875 11.23046875 C-24.6675 11.23046875 -26.6475 11.23046875 -28.6875 11.23046875 Z M29.3125 17.23046875 C24.37696342 23.0994871 20.3125 31.4470806 20.3125 39.23046875 C22.73517086 39.28214402 22.73517086 39.28214402 25.3125 38.23046875 C26.55111103 35.84852446 27.45506277 33.74260942 28.3125 31.23046875 C31.12329288 23.86886835 34.43512173 17.36307592 41.6875 13.73046875 C42.88375 13.23546875 44.08 12.74046875 45.3125 12.23046875 C45.3125 11.90046875 45.3125 11.57046875 45.3125 11.23046875 C38.96353283 10.79419252 34.32156139 13.53067744 29.3125 17.23046875 Z M-29.6875 12.23046875 C-30.3475 12.89046875 -31.0075 13.55046875 -31.6875 14.23046875 C-30.6975 14.23046875 -29.7075 14.23046875 -28.6875 14.23046875 C-29.0175 13.57046875 -29.3475 12.91046875 -29.6875 12.23046875 Z M-36.80859375 15.26953125 C-42.39983826 19.09760085 -47.09563378 22.75080321 -49.6875 29.23046875 C-49.6875 30.22046875 -49.6875 31.21046875 -49.6875 32.23046875 C-50.3475 32.56046875 -51.0075 32.89046875 -51.6875 33.23046875 C-51.3575 33.89046875 -51.0275 34.55046875 -50.6875 35.23046875 C-51.3475 35.23046875 -52.0075 35.23046875 -52.6875 35.23046875 C-52.6875 40.18046875 -52.6875 45.13046875 -52.6875 50.23046875 C-52.0275 50.23046875 -51.3675 50.23046875 -50.6875 50.23046875 C-51.1825 52.70546875 -51.1825 52.70546875 -51.6875 55.23046875 C-51.0275 55.23046875 -50.3675 55.23046875 -49.6875 55.23046875 C-49.5328125 56.52984375 -49.5328125 56.52984375 -49.375 57.85546875 C-48.65049792 61.41211534 -47.41845468 64.05705183 -45.6875 67.23046875 C-45.3575 67.89046875 -45.0275 68.55046875 -44.6875 69.23046875 C-44.0275 69.23046875 -43.3675 69.23046875 -42.6875 69.23046875 C-42.43613281 70.11605469 -42.18476563 71.00164062 -41.92578125 71.9140625 C-36.2743889 87.04981048 -18.2722579 99.94579002 -5.6875 109.23046875 C-4.78 109.98199219 -3.8725 110.73351562 -2.9375 111.5078125 C-0.89512037 113.43310558 -0.89512037 113.43310558 1.3125 113.23046875 C1.3125 113.89046875 1.3125 114.55046875 1.3125 115.23046875 C5.21991833 118.25556681 9.64388019 120.62563069 14.3125 122.23046875 C15.3025 120.74546875 15.3025 120.74546875 16.3125 119.23046875 C15.19875 118.75609375 14.085 118.28171875 12.9375 117.79296875 C8.13089636 115.41954813 4.55438079 112.03731092 0.70703125 108.3515625 C-3.45372998 104.56441205 -3.45372998 104.56441205 -8.6875 103.23046875 C-8.94015625 102.63878906 -9.1928125 102.04710937 -9.453125 101.4375 C-10.83298898 98.97033814 -12.25111107 97.69335046 -14.4375 95.91796875 C-17.73413975 93.13493592 -20.55001063 90.25284536 -23.265625 86.90625 C-24.70868219 85.1544935 -24.70868219 85.1544935 -26.5546875 83.39453125 C-36.53748678 73.26546385 -45.88011113 60.08519467 -45.78515625 45.3671875 C-45.78193359 44.48095703 -45.77871094 43.59472656 -45.77539062 42.68164062 C-45.76701172 41.76962891 -45.75863281 40.85761719 -45.75 39.91796875 C-45.74548828 38.98662109 -45.74097656 38.05527344 -45.73632812 37.09570312 C-45.72459234 34.80722502 -45.70817363 32.51888067 -45.6875 30.23046875 C-45.0275 30.23046875 -44.3675 30.23046875 -43.6875 30.23046875 C-43.1925 29.05484375 -42.6975 27.87921875 -42.1875 26.66796875 C-39.72789845 21.66856125 -36.02960216 18.60297529 -31.6875 15.23046875 C-34.58764658 13.87412518 -34.58764658 13.87412518 -36.80859375 15.26953125 Z " fill="#F65D5D" transform="translate(262.6875,150.76953125)"/>
<path d="M0 0 C1.33952728 0.03042389 1.33952728 0.03042389 2.70611572 0.0614624 C4.58204454 0.10681038 6.45785027 0.15753882 8.33349609 0.21337891 C11.20784412 0.29701231 14.08208994 0.358636 16.95703125 0.41796875 C18.78388824 0.46483587 20.6107133 0.51296858 22.4375 0.5625 C23.29688171 0.58032532 24.15626343 0.59815063 25.04168701 0.61651611 C25.83971741 0.64284119 26.6377478 0.66916626 27.45996094 0.69628906 C28.51083893 0.72532318 28.51083893 0.72532318 29.58294678 0.75494385 C31.453125 1.046875 31.453125 1.046875 34.453125 3.046875 C35.0703125 5.10546875 35.0703125 5.10546875 35.328125 7.484375 C35.42867188 8.26683594 35.52921875 9.04929688 35.6328125 9.85546875 C35.453125 12.046875 35.453125 12.046875 34.1484375 13.76953125 C30.30624698 16.6644536 26.07511377 16.17598486 21.50390625 16.14453125 C20.73128952 16.1431163 19.95867279 16.14170135 19.16264343 16.14024353 C16.69693111 16.13464966 14.23130985 16.12209833 11.765625 16.109375 C10.09310027 16.10435921 8.42057412 16.09979644 6.74804688 16.09570312 C2.64970454 16.08468224 -1.44856979 16.06742184 -5.546875 16.046875 C-5.876875 18.026875 -6.206875 20.006875 -6.546875 22.046875 C-7.206875 22.046875 -7.866875 22.046875 -8.546875 22.046875 C-8.815 23.325625 -9.083125 24.604375 -9.359375 25.921875 C-10.7689091 32.23499954 -12.39072582 38.42853715 -15.0078125 44.35546875 C-16.60941917 48.19688577 -17.71948763 51.96036631 -18.734375 55.984375 C-18.91162109 56.66822266 -19.08886719 57.35207031 -19.27148438 58.05664062 C-19.70154921 59.7187831 -20.12492937 61.38265288 -20.546875 63.046875 C-21.206875 63.046875 -21.866875 63.046875 -22.546875 63.046875 C-22.66933594 64.03816406 -22.79179687 65.02945313 -22.91796875 66.05078125 C-23.49990745 70.12435212 -24.50951712 74.02410935 -25.609375 77.984375 C-25.8887793 79.01014648 -25.8887793 79.01014648 -26.17382812 80.05664062 C-26.62776557 81.72107793 -27.08678416 83.38412812 -27.546875 85.046875 C-28.206875 85.046875 -28.866875 85.046875 -29.546875 85.046875 C-29.65 86.119375 -29.753125 87.191875 -29.859375 88.296875 C-30.72788391 95.18378371 -32.24490424 102.04713436 -35.01171875 108.421875 C-36.62801979 112.23848408 -37.72379947 115.97746268 -38.734375 119.984375 C-38.91162109 120.66822266 -39.08886719 121.35207031 -39.27148438 122.05664062 C-39.70154921 123.7187831 -40.12492937 125.38265288 -40.546875 127.046875 C-41.206875 127.046875 -41.866875 127.046875 -42.546875 127.046875 C-42.65644531 127.62953125 -42.76601563 128.2121875 -42.87890625 128.8125 C-43.81341087 133.64457268 -44.83757925 138.44801169 -45.984375 143.234375 C-46.20996094 144.17667969 -46.43554688 145.11898437 -46.66796875 146.08984375 C-47.546875 149.046875 -47.546875 149.046875 -49.0078125 152.3828125 C-50.68489544 156.37546174 -51.74622323 160.28184626 -52.734375 164.484375 C-52.91162109 165.21591797 -53.08886719 165.94746094 -53.27148438 166.70117188 C-53.70208391 168.48175915 -54.12526716 170.26413726 -54.546875 172.046875 C-55.206875 172.046875 -55.866875 172.046875 -56.546875 172.046875 C-56.7015625 173.779375 -56.7015625 173.779375 -56.859375 175.546875 C-57.63087642 181.4373926 -58.75839409 186.85525514 -63.421875 190.859375 C-64.453125 191.58125 -65.484375 192.303125 -66.546875 193.046875 C-67.29044943 193.57899629 -68.03402386 194.11111757 -68.80013084 194.65936375 C-72.26412252 196.40919087 -74.74407159 196.42703608 -78.61978149 196.43455505 C-79.32022437 196.43994059 -80.02066725 196.44532613 -80.74233568 196.45087487 C-83.08312394 196.46515213 -85.42334651 196.45805168 -87.76416016 196.45092773 C-89.44474237 196.45663129 -91.12532071 196.46359549 -92.80589294 196.47172546 C-97.36562609 196.4896696 -101.92516694 196.48848664 -106.48492479 196.48278308 C-110.28994459 196.47969433 -114.09492728 196.48577989 -117.8999418 196.49182183 C-126.87277903 196.50586835 -135.84552104 196.50430352 -144.81835938 196.49291992 C-154.08263228 196.48142653 -163.34661611 196.49553454 -172.61085093 196.5223164 C-180.56169669 196.54444278 -188.51245149 196.55111806 -196.46332586 196.54523998 C-201.2136238 196.5418633 -205.96373622 196.54433302 -210.71400833 196.56149101 C-215.17761206 196.57691038 -219.6407856 196.57306077 -224.10437202 196.55418587 C-225.74469862 196.55048664 -227.38505675 196.5536471 -229.02535439 196.56407166 C-231.26005034 196.57719259 -233.49330311 196.56581591 -235.72793579 196.54808044 C-236.97968912 196.54787116 -238.23144245 196.54766188 -239.5211277 196.54744625 C-242.546875 196.046875 -242.546875 196.046875 -244.45035362 194.1564188 C-245.70861643 191.73570858 -245.91909943 190.19953928 -245.859375 187.484375 C-245.85550781 186.71996094 -245.85164063 185.95554687 -245.84765625 185.16796875 C-245.546875 183.046875 -245.546875 183.046875 -243.546875 180.046875 C-235.8235863 178.37573192 -227.72904446 178.9137133 -219.859375 178.93334961 C-218.27200828 178.933632 -216.68464143 178.93347273 -215.09727478 178.9329071 C-210.80655149 178.93262117 -206.51585638 178.93848497 -202.22513962 178.94548106 C-197.7341603 178.95174851 -193.24318028 178.95232108 -188.75219727 178.95350647 C-180.25616693 178.9566098 -171.76014952 178.96480971 -163.26412487 178.97485596 C-153.5881881 178.98604812 -143.91225069 178.99153536 -134.23630905 178.99655139 C-114.33982364 179.00699318 -94.44335059 179.0247756 -74.546875 179.046875 C-72.566875 171.621875 -72.566875 171.621875 -70.546875 164.046875 C-72.72596466 164.05131622 -74.90505432 164.05575745 -77.150177 164.06033325 C-97.66260991 164.10118502 -118.17503746 164.13095843 -138.68750191 164.15049934 C-149.23374156 164.16081305 -159.77995137 164.17487522 -170.32617188 164.19775391 C-179.51797374 164.21768485 -188.709754 164.23059075 -197.90157688 164.23505199 C-202.76881452 164.23765986 -207.63599033 164.24379153 -212.50320816 164.25833511 C-217.08482057 164.27191432 -221.66634568 164.27609694 -226.2479763 164.27309036 C-227.92897071 164.27364037 -229.60996805 164.2776158 -231.29094505 164.28528595 C-233.58796068 164.29525252 -235.88464774 164.2928377 -238.18167114 164.28738403 C-239.46665056 164.28922762 -240.75162998 164.29107121 -242.07554817 164.29297066 C-246.47021845 163.98141565 -250.19978077 163.43505707 -253.33984375 160.19921875 C-256.17261284 155.70011489 -258.32851632 151.4808105 -259.828125 146.375 C-260.62525158 143.79300305 -261.62747478 141.35101554 -262.671875 138.859375 C-264.14287017 135.26048987 -265.13694582 131.94120219 -265.546875 128.046875 C-266.206875 128.046875 -266.866875 128.046875 -267.546875 128.046875 C-267.93359375 126.86351562 -268.3203125 125.68015625 -268.71875 124.4609375 C-271.99317941 114.37639411 -271.99317941 114.37639411 -275.796875 104.484375 C-277.63563643 100.07900907 -278.6403996 95.73033124 -279.546875 91.046875 C-280.206875 91.046875 -280.866875 91.046875 -281.546875 91.046875 C-282.38545188 88.44429176 -283.21790844 85.84001853 -284.046875 83.234375 C-284.28535156 82.49638672 -284.52382813 81.75839844 -284.76953125 80.99804688 C-285.74627636 77.91432304 -286.546875 75.30191691 -286.546875 72.046875 C-287.206875 72.046875 -287.866875 72.046875 -288.546875 72.046875 C-288.81165649 71.23682007 -288.81165649 71.23682007 -289.08178711 70.41040039 C-289.87953995 67.97569336 -290.68189379 65.54252742 -291.484375 63.109375 C-291.76216797 62.25923828 -292.03996094 61.40910156 -292.32617188 60.53320312 C-292.59365234 59.72431641 -292.86113281 58.91542969 -293.13671875 58.08203125 C-293.38284912 57.3331665 -293.62897949 56.58430176 -293.88256836 55.81274414 C-294.40751769 54.04861519 -294.40751769 54.04861519 -295.546875 53.046875 C-296.33922272 48.93206925 -296.33705666 45.4302791 -294.23046875 41.7421875 C-290.51812992 37.20765282 -287.36652037 35.04681991 -281.546875 34.046875 C-276.85584395 33.76555728 -272.17473426 33.79052475 -267.4765625 33.81640625 C-266.10849043 33.81760037 -264.74041753 33.81805072 -263.37234497 33.8177948 C-260.51624357 33.81935251 -257.66026878 33.82758856 -254.80419922 33.84106445 C-251.15151014 33.85808547 -247.49895938 33.8618774 -243.84623528 33.86111927 C-241.02546886 33.86139168 -238.20473241 33.86688381 -235.38397598 33.87412071 C-233.38488376 33.87882779 -231.38578528 33.88057818 -229.38668823 33.88227844 C-228.16837311 33.88865829 -226.95005798 33.89503815 -225.69482422 33.90161133 C-224.62561737 33.90542313 -223.55641052 33.90923492 -222.45480347 33.91316223 C-219.71260446 34.03925441 -217.2165588 34.42742472 -214.546875 35.046875 C-214.051875 37.026875 -214.051875 37.026875 -213.546875 39.046875 C-212.886875 39.046875 -212.226875 39.046875 -211.546875 39.046875 C-211.546875 41.026875 -211.546875 43.006875 -211.546875 45.046875 C-212.206875 45.046875 -212.866875 45.046875 -213.546875 45.046875 C-213.65 45.68625 -213.753125 46.325625 -213.859375 46.984375 C-214.08625 47.665 -214.313125 48.345625 -214.546875 49.046875 C-217.77545594 50.12306865 -220.09226779 50.16739996 -223.48706055 50.16040039 C-224.70809982 50.16032486 -225.9291391 50.16024933 -227.18717957 50.16017151 C-228.50599625 50.15501022 -229.82481293 50.14984894 -231.18359375 50.14453125 C-232.54694059 50.1426658 -233.91028811 50.1412425 -235.27363586 50.14024353 C-238.85915991 50.13642832 -242.44464335 50.12660655 -246.03015137 50.11553955 C-249.6900172 50.10530401 -253.3498896 50.10074132 -257.00976562 50.09570312 C-264.18882058 50.08498338 -271.3678421 50.06791893 -278.546875 50.046875 C-278.258125 50.80613281 -277.969375 51.56539063 -277.671875 52.34765625 C-277.115 53.83845703 -277.115 53.83845703 -276.546875 55.359375 C-276.175625 56.34550781 -275.804375 57.33164062 -275.421875 58.34765625 C-274.546875 61.046875 -274.546875 61.046875 -274.546875 64.046875 C-273.886875 64.046875 -273.226875 64.046875 -272.546875 64.046875 C-272.14855469 65.26503906 -271.75023437 66.48320312 -271.33984375 67.73828125 C-270.80485044 69.36203286 -270.26968504 70.98572778 -269.734375 72.609375 C-269.47333984 73.40923828 -269.21230469 74.20910156 -268.94335938 75.03320312 C-267.74114782 78.66952203 -266.50927261 82.24796413 -264.97265625 85.7578125 C-263.63490157 88.84381096 -262.56018775 91.90477342 -261.546875 95.109375 C-260.5028905 98.32500663 -259.48447309 101.16687868 -257.921875 104.171875 C-255.95079311 108.29322805 -255.29996394 112.56378086 -254.546875 117.046875 C-253.886875 117.046875 -253.226875 117.046875 -252.546875 117.046875 C-251.70607481 119.46117269 -250.87406098 121.87791493 -250.046875 124.296875 C-249.80839844 124.97878906 -249.56992188 125.66070312 -249.32421875 126.36328125 C-248.15266213 129.81100503 -247.546875 132.36390404 -247.546875 136.046875 C-246.886875 136.046875 -246.226875 136.046875 -245.546875 136.046875 C-244.226875 139.676875 -242.906875 143.306875 -241.546875 147.046875 C-231.37698068 147.9261987 -221.28913114 148.18607983 -211.08642578 148.16040039 C-209.48832196 148.16011754 -207.89021801 148.16027815 -206.29211426 148.1608429 C-201.99968009 148.16112707 -197.70727449 148.15529233 -193.4148469 148.14826894 C-188.91189123 148.1419716 -184.40893474 148.14142659 -179.90597534 148.14024353 C-171.39952 148.13714889 -162.89307767 148.12896092 -154.38662803 148.11889404 C-144.6936238 148.1076746 -135.00061891 148.10220783 -125.3076098 148.09719861 C-105.38735763 148.08677654 -85.46711714 148.06921363 -65.546875 148.046875 C-64.556875 144.086875 -64.556875 144.086875 -63.546875 140.046875 C-62.886875 140.046875 -62.226875 140.046875 -61.546875 140.046875 C-61.43730469 139.39203125 -61.32773437 138.7371875 -61.21484375 138.0625 C-59.98164768 130.96410313 -58.37112675 124.0155167 -56.546875 117.046875 C-55.886875 117.046875 -55.226875 117.046875 -54.546875 117.046875 C-54.43730469 116.46421875 -54.32773437 115.8815625 -54.21484375 115.28125 C-52.89788243 108.47159635 -51.27767026 101.76236059 -49.546875 95.046875 C-48.886875 95.046875 -48.226875 95.046875 -47.546875 95.046875 C-47.43730469 94.35722656 -47.32773437 93.66757812 -47.21484375 92.95703125 C-46.2733633 87.37703739 -45.0754244 82.14235924 -43.1328125 76.82421875 C-42.44250997 75.04220711 -42.44250997 75.04220711 -42.546875 73.046875 C-41.886875 73.046875 -41.226875 73.046875 -40.546875 73.046875 C-40.42570313 72.345625 -40.30453125 71.644375 -40.1796875 70.921875 C-39.17382998 65.22717395 -38.02375872 59.63793481 -36.546875 54.046875 C-35.886875 54.046875 -35.226875 54.046875 -34.546875 54.046875 C-34.546875 52.726875 -34.546875 51.406875 -34.546875 50.046875 C-35.60470184 50.06019867 -35.60470184 50.06019867 -36.68389893 50.0737915 C-43.33427208 50.15398423 -49.98451005 50.21486281 -56.63525772 50.25412369 C-60.0544118 50.27498701 -63.47316594 50.30328005 -66.89208984 50.34863281 C-70.82384431 50.40046118 -74.75543757 50.41983078 -78.6875 50.4375 C-80.52674042 50.46846771 -80.52674042 50.46846771 -82.40313721 50.50006104 C-83.54401794 50.50036316 -84.68489868 50.50066528 -85.86035156 50.50097656 C-86.86406799 50.50985901 -87.86778442 50.51874146 -88.9019165 50.52789307 C-92.26716378 49.91588167 -93.44155138 48.68395522 -95.546875 46.046875 C-96.38226699 42.61979447 -96.22372005 39.21255258 -94.421875 36.109375 C-90.27587449 33.75997471 -85.29068664 33.92299986 -80.63330078 33.93334961 C-79.49257111 33.93342514 -78.35184143 33.93350067 -77.17654419 33.93357849 C-75.96070648 33.93873978 -74.74486877 33.94390106 -73.4921875 33.94921875 C-72.23550262 33.9506337 -70.97881775 33.95204865 -69.68405151 33.95350647 C-66.3599556 33.95814426 -63.03592958 33.9671132 -59.71185303 33.97821045 C-56.31311646 33.98848099 -52.91437265 33.99301613 -49.515625 33.99804688 C-42.85935583 34.00905801 -36.20311945 34.02578278 -29.546875 34.046875 C-29.07596436 32.96913818 -28.60505371 31.89140137 -28.11987305 30.78100586 C-27.85498581 30.1747789 -27.59009857 29.56855194 -27.31718445 28.94395447 C-26.08193761 25.90185053 -25.23264968 22.7712316 -24.359375 19.609375 C-23.84310547 17.75505859 -23.84310547 17.75505859 -23.31640625 15.86328125 C-23.06246094 14.93386719 -22.80851562 14.00445312 -22.546875 13.046875 C-21.886875 13.046875 -21.226875 13.046875 -20.546875 13.046875 C-20.44375 12.16 -20.340625 11.273125 -20.234375 10.359375 C-19.50043246 6.82310641 -18.85832255 4.82061206 -16.546875 2.046875 C-10.9443428 -0.06335779 -5.93545541 -0.18073894 0 0 Z " fill="#43423F" transform="translate(430.546875,220.953125)"/>
<path d="M0 0 C4.78353235 3.72289795 9.14087247 7.83928188 13.3125 12.23046875 C13.90417969 11.61558594 14.49585938 11.00070313 15.10546875 10.3671875 C15.89566406 9.55894531 16.68585938 8.75070313 17.5 7.91796875 C18.27730469 7.11746094 19.05460937 6.31695312 19.85546875 5.4921875 C25.57156736 0.23046875 25.57156736 0.23046875 29.3125 0.23046875 C29.3125 -0.42953125 29.3125 -1.08953125 29.3125 -1.76953125 C42.1270098 -6.24528519 54.4361764 -5.7978783 67.3125 -1.76953125 C67.3125 -1.10953125 67.3125 -0.44953125 67.3125 0.23046875 C68.01375 0.49859375 68.715 0.76671875 69.4375 1.04296875 C70.38625 1.43484375 71.335 1.82671875 72.3125 2.23046875 C73.281875 2.62234375 74.25125 3.01421875 75.25 3.41796875 C79.18709896 5.74808854 81.52935269 8.66046304 84.3125 12.23046875 C84.96605469 13.00777344 85.61960937 13.78507812 86.29296875 14.5859375 C88.39800995 17.34244212 89.94845876 20.06887481 91.5 23.16796875 C92.26376953 24.66650391 92.26376953 24.66650391 93.04296875 26.1953125 C97.36931886 36.53861723 96.11359691 49.60130636 93.3125 60.23046875 C92.6525 60.23046875 91.9925 60.23046875 91.3125 60.23046875 C91.250625 61.01421875 91.18875 61.79796875 91.125 62.60546875 C89.11326162 71.58091689 83.65655835 78.91625064 78.3125 86.23046875 C77.43733504 87.50118849 76.56231642 88.77200904 75.6875 90.04296875 C73.41816234 93.08865877 71.06160569 95.61881834 68.3125 98.23046875 C67.508125 99.05546875 66.70375 99.88046875 65.875 100.73046875 C63.14124288 103.39754887 60.24572554 105.78611413 57.3125 108.23046875 C56.52875 109.02066406 55.745 109.81085938 54.9375 110.625 C50.68430258 114.8465516 45.99314506 118.49660398 41.3125 122.23046875 C40.79059082 122.65054199 40.26868164 123.07061523 39.73095703 123.50341797 C21.77700588 137.91145009 21.77700588 137.91145009 12.6875 140.10546875 C7.39803946 138.73412713 3.60026496 135.51775522 -0.6875 132.23046875 C-1.698125 131.57046875 -2.70875 130.91046875 -3.75 130.23046875 C-12.33634545 124.38444632 -20.11968702 117.51808031 -27.95605469 110.72265625 C-29.14865317 109.69485564 -30.34762952 108.67442461 -31.55175781 107.66015625 C-34.65231052 105.04329632 -37.56785859 102.4696343 -40.1875 99.35546875 C-42.79751785 96.27822212 -42.79751785 96.27822212 -45.47265625 93.2578125 C-49.73884713 88.54156192 -53.28947269 83.59972737 -56.6875 78.23046875 C-57.15414062 77.51375 -57.62078125 76.79703125 -58.1015625 76.05859375 C-63.6875 67.36935764 -63.6875 67.36935764 -63.6875 62.23046875 C-64.3475 62.23046875 -65.0075 62.23046875 -65.6875 62.23046875 C-66.19688345 59.73206421 -66.69513114 57.23223487 -67.1875 54.73046875 C-67.33058594 54.034375 -67.47367188 53.33828125 -67.62109375 52.62109375 C-69.10251383 45.00236192 -68.94915353 38.36430072 -67.1875 30.73046875 C-66.9090625 29.50328125 -66.630625 28.27609375 -66.34375 27.01171875 C-66.01890625 25.635 -66.01890625 25.635 -65.6875 24.23046875 C-65.0275 24.23046875 -64.3675 24.23046875 -63.6875 24.23046875 C-63.39875 23.32296875 -63.11 22.41546875 -62.8125 21.48046875 C-61.92218224 18.90843967 -60.97255587 16.61700109 -59.6875 14.23046875 C-59.0275 14.23046875 -58.3675 14.23046875 -57.6875 14.23046875 C-57.460625 13.67359375 -57.23375 13.11671875 -57 12.54296875 C-52.27612071 4.21994333 -42.3846362 -0.52942169 -33.6875 -3.76953125 C-23.02054822 -6.41316055 -9.36169407 -6.1640224 0 0 Z M-12.6875 9.23046875 C-14.9975 9.56046875 -17.3075 9.89046875 -19.6875 10.23046875 C-19.6875 10.89046875 -19.6875 11.55046875 -19.6875 12.23046875 C-21.5128125 11.76640625 -21.5128125 11.76640625 -23.375 11.29296875 C-30.45652573 10.4974176 -36.04090747 14.34472153 -41.6875 18.23046875 C-45.23259452 21.4250222 -47.79227878 24.84290181 -49.6875 29.23046875 C-49.6875 30.22046875 -49.6875 31.21046875 -49.6875 32.23046875 C-50.3475 32.56046875 -51.0075 32.89046875 -51.6875 33.23046875 C-51.3575 33.89046875 -51.0275 34.55046875 -50.6875 35.23046875 C-51.3475 35.23046875 -52.0075 35.23046875 -52.6875 35.23046875 C-52.6875 40.18046875 -52.6875 45.13046875 -52.6875 50.23046875 C-52.0275 50.23046875 -51.3675 50.23046875 -50.6875 50.23046875 C-51.1825 52.70546875 -51.1825 52.70546875 -51.6875 55.23046875 C-51.0275 55.23046875 -50.3675 55.23046875 -49.6875 55.23046875 C-49.5328125 56.52984375 -49.5328125 56.52984375 -49.375 57.85546875 C-48.65049792 61.41211534 -47.41845468 64.05705183 -45.6875 67.23046875 C-45.3575 67.89046875 -45.0275 68.55046875 -44.6875 69.23046875 C-44.0275 69.23046875 -43.3675 69.23046875 -42.6875 69.23046875 C-42.43613281 70.11605469 -42.18476563 71.00164062 -41.92578125 71.9140625 C-36.2743889 87.04981048 -18.2722579 99.94579002 -5.6875 109.23046875 C-4.78 109.98199219 -3.8725 110.73351562 -2.9375 111.5078125 C-0.89512037 113.43310558 -0.89512037 113.43310558 1.3125 113.23046875 C1.3125 113.89046875 1.3125 114.55046875 1.3125 115.23046875 C5.21991833 118.25556681 9.64388019 120.62563069 14.3125 122.23046875 C15.3025 120.74546875 15.3025 120.74546875 16.3125 119.23046875 C15.49845703 118.86695313 15.49845703 118.86695313 14.66796875 118.49609375 C7.56206063 115.16719986 7.56206063 115.16719986 5.3125 111.23046875 C5.704375 111.70484375 6.09625 112.17921875 6.5 112.66796875 C8.25062241 114.43820577 8.25062241 114.43820577 10.875 114.73046875 C13.3125 115.23046875 13.3125 115.23046875 15.3125 118.23046875 C15.9725 118.23046875 16.6325 118.23046875 17.3125 118.23046875 C17.6425 118.89046875 17.9725 119.55046875 18.3125 120.23046875 C23.25160685 116.55641924 28.14763655 112.83314915 32.9921875 109.03515625 C34.61124213 107.77589154 36.24251649 106.53224968 37.8828125 105.30078125 C38.70523438 104.67945313 39.52765625 104.058125 40.375 103.41796875 C41.50615234 102.57298828 41.50615234 102.57298828 42.66015625 101.7109375 C43.47806641 100.97810547 43.47806641 100.97810547 44.3125 100.23046875 C44.3125 99.57046875 44.3125 98.91046875 44.3125 98.23046875 C44.87324219 97.99585938 45.43398438 97.76125 46.01171875 97.51953125 C53.2632364 93.45671151 63.6282103 83.28333785 66.3125 75.23046875 C66.9725 75.23046875 67.6325 75.23046875 68.3125 75.23046875 C68.86679687 74.121875 69.42109375 73.01328125 69.9921875 71.87109375 C76.3125 59.23046875 76.3125 59.23046875 77.39672852 57.16040039 C80.98427135 49.59987624 80.84437179 37.92217941 78.25390625 29.98828125 C74.11314358 21.88630118 67.80553271 15.78214031 59.5390625 11.9453125 C55.26490753 10.5730838 50.78946476 10.19112811 46.3125 10.23046875 C45.9825 10.56046875 45.6525 10.89046875 45.3125 11.23046875 C43.8275 11.35421875 43.8275 11.35421875 42.3125 11.48046875 C36.41147301 12.31654855 31.31037109 14.73754995 27.546875 19.43359375 C24.41885588 24.45738204 22.15202867 29.72986402 20.171875 35.296875 C19.3125 37.23046875 19.3125 37.23046875 17.3125 38.23046875 C17.3125 38.89046875 17.3125 39.55046875 17.3125 40.23046875 C9.5625 39.48046875 9.5625 39.48046875 7.3125 37.23046875 C7.085625 35.93109375 6.85875 34.63171875 6.625 33.29296875 C4.7341713 24.13426725 -1.1825009 16.57056427 -8.6875 11.23046875 C-9.6775 11.23046875 -10.6675 11.23046875 -11.6875 11.23046875 C-12.1825 10.24046875 -12.1825 10.24046875 -12.6875 9.23046875 Z " fill="#464440" transform="translate(262.6875,150.76953125)"/>
<path d="M0 0 C0 0.66 0 1.32 0 2 C0.78375 2.2475 1.5675 2.495 2.375 2.75 C5.32317108 4.15389099 5.9024777 5.00675737 7 8 C7.66 8 8.32 8 9 8 C10.92325647 11.2435873 11.27080868 13.68673517 11.25 17.4375 C11.25773437 18.82775391 11.25773437 18.82775391 11.265625 20.24609375 C10.98451512 23.16054176 10.21247903 25.34890497 9 28 C8.34 28 7.68 28 7 28 C6.7525 28.61875 6.505 29.2375 6.25 29.875 C4.79371361 32.35068687 3.62187494 32.95125002 1 34 C1 34.66 1 35.32 1 36 C-5.16943907 38.68924267 -10.74455496 38.08514835 -17 36 C-19.98287297 33.24084251 -22.81904457 30.44361383 -25 27 C-25 26.01 -25 25.02 -25 24 C-25.66 24 -26.32 24 -27 24 C-27.54924305 17.36026179 -27.60206374 12.27725948 -23.53125 6.79296875 C-23.0259375 6.20128906 -22.520625 5.60960937 -22 5 C-21.5153125 4.39800781 -21.030625 3.79601562 -20.53125 3.17578125 C-15.02954331 -2.60910152 -7.27071166 -2.42357055 0 0 Z M-10 16 C-10 17.65 -10 19.3 -10 21 C-8.68 21 -7.36 21 -6 21 C-5.34 19.35 -4.68 17.7 -4 16 C-5.98 16 -7.96 16 -10 16 Z " fill="#454441" transform="translate(217,422)"/>
<path d="M0 0 C0 0.66 0 1.32 0 2 C0.7425 2.2475 1.485 2.495 2.25 2.75 C6.58248732 4.71931242 8.46566295 6.72776892 10.3125 11.125 C11.43264035 17.43851835 11.2252113 22.75377928 8.125 28.4375 C4.59310345 32.69655172 4.59310345 32.69655172 3 34 C2.34 34 1.68 34 1 34 C1 34.66 1 35.32 1 36 C-5.52003895 38.30918046 -10.32753083 38.22415639 -17 36 C-18.70884005 34.37660195 -20.37446717 32.70680947 -22 31 C-22.556875 30.54625 -23.11375 30.0925 -23.6875 29.625 C-26.95122579 25.58419664 -27.19329962 20.97911548 -26.875 16 C-26.0394448 9.74283092 -23.83012768 5.28002612 -19 1.0625 C-13.56043208 -2.54417003 -5.98354083 -1.99451361 0 0 Z M-11 16 C-10.67 17.98 -10.34 19.96 -10 22 C-8.68 21.67 -7.36 21.34 -6 21 C-5.67 19.35 -5.34 17.7 -5 16 C-6.98 16 -8.96 16 -11 16 Z " fill="#434240" transform="translate(355,422)"/>
<path d="M0 0 C1.30097122 0.00007553 2.60194244 0.00015106 3.94233704 0.00022888 C5.35242756 0.00533477 6.76251769 0.01055075 8.17260742 0.01586914 C9.62277681 0.0177356 11.07294682 0.01915843 12.52311707 0.02015686 C16.32890583 0.02396409 20.13465608 0.03377897 23.94042969 0.04486084 C27.82836384 0.05511362 31.71630425 0.05966275 35.60424805 0.06469727 C43.22470826 0.07540293 50.84513681 0.09245769 58.46557617 0.11352539 C58.46557617 1.76352539 58.46557617 3.41352539 58.46557617 5.11352539 C59.45557617 5.44352539 60.44557617 5.77352539 61.46557617 6.11352539 C61.96057617 6.60852539 61.96057617 6.60852539 62.46557617 7.11352539 C62.79557617 6.12352539 63.12557617 5.13352539 63.46557617 4.11352539 C62.59057617 10.86352539 62.59057617 10.86352539 61.46557617 13.11352539 C58.23699523 14.18971904 55.92018338 14.23405035 52.52539062 14.22705078 C51.30435135 14.22697525 50.08331207 14.22689972 48.82527161 14.2268219 C47.50645493 14.22166061 46.18763824 14.21649933 44.82885742 14.21118164 C43.46551058 14.20931619 42.10216306 14.20789289 40.73881531 14.20689392 C37.15329126 14.20307872 33.56780782 14.19325694 29.9822998 14.18218994 C26.32243397 14.1719544 22.66256157 14.16739171 19.00268555 14.16235352 C11.82363059 14.15163377 4.64460907 14.13456932 -2.53442383 14.11352539 C-2.19668945 14.89083008 -1.85895508 15.66813477 -1.51098633 16.46899414 C-0.46491095 19.30176628 -0.50964448 20.34662115 -1.53442383 23.11352539 C-4.49617506 22.50074927 -5.91501166 21.85980017 -8.53442383 20.11352539 C-9.90942383 16.73852539 -9.90942383 16.73852539 -10.53442383 13.11352539 C-9.15942383 10.67602539 -9.15942383 10.67602539 -7.53442383 9.11352539 C-8.19442383 9.11352539 -8.85442383 9.11352539 -9.53442383 9.11352539 C-9.86442383 9.77352539 -10.19442383 10.43352539 -10.53442383 11.11352539 C-12.96299526 4.8278111 -12.96299526 4.8278111 -11.53442383 1.11352539 C-7.6281508 0.19297578 -4.00893425 -0.00778434 0 0 Z " fill="#464541" transform="translate(154.534423828125,256.886474609375)"/>
<path d="M0 0 C0.99 0.33 1.98 0.66 3 1 C3 2.98 3 4.96 3 7 C3.99 6.67 4.98 6.34 6 6 C6.33 5.34 6.66 4.68 7 4 C7 5.32 7 6.64 7 8 C7.763125 8 8.52625 8 9.3125 8 C12 9 12 9 13 10.70703125 C14.42379504 14.39657704 15 16.9735472 15 21 C15.66 21 16.32 21 17 21 C17.99 24.63 18.98 28.26 20 32 C19.01 32.66 18.02 33.32 17 34 C17 34.66 17 35.32 17 36 C17.66 36.33 18.32 36.66 19 37 C19.81640625 38.8125 19.81640625 38.8125 20.5625 41 C21.39037842 43.73933017 21.39037842 43.73933017 23 46 C25.20194529 46.10929668 27.40744854 46.14692914 29.61207581 46.15821838 C30.66078862 46.16562535 30.66078862 46.16562535 31.73068756 46.17318195 C34.09071952 46.18863043 36.45072414 46.19693732 38.81079102 46.20532227 C40.49564864 46.21489503 42.18050383 46.22490474 43.86535645 46.23532104 C48.45397836 46.26244145 53.04261064 46.28341225 57.63126874 46.30332303 C62.42126702 46.32513873 67.2112331 46.35254895 72.00120544 46.37937927 C81.07826698 46.42936607 90.15534632 46.47428261 99.2324428 46.51740164 C109.56360867 46.56672296 119.89474226 46.62165996 130.22587693 46.67708123 C151.48388789 46.79099314 172.74192966 46.89781202 194 47 C193.67 47.99 193.34 48.98 193 50 C170.15601563 49.91612342 147.31210277 49.82099862 124.46822166 49.71247292 C113.86147886 49.6623453 103.25474379 49.61590235 92.64794922 49.578125 C83.40336777 49.54519 74.15884632 49.50535036 64.91433108 49.45720994 C60.01917761 49.43196002 55.12406386 49.41017423 50.22886276 49.39665604 C45.62093807 49.38382209 41.0131497 49.36175315 36.40530014 49.33261681 C34.71465021 49.32355149 33.02397833 49.31785323 31.33330536 49.31578636 C29.023105 49.31245643 26.71328944 49.29695945 24.40316772 49.2784729 C23.11081396 49.27294214 21.8184602 49.26741138 20.4869442 49.26171303 C16.09145927 48.93180936 12.34906053 48.39020835 9.20703125 45.15234375 C4.39329121 37.50699193 1.7686398 30.02101177 0.625 21.0625 C-0.07150822 17.64960972 -1.33771396 15.0475244 -3 12 C-3.33 11.34 -3.66 10.68 -4 10 C-2.5625 7.375 -2.5625 7.375 -1 5 C-1.66 4.67 -2.32 4.34 -3 4 C-2.01 2.68 -1.02 1.36 0 0 Z " fill="#4C4C49" transform="translate(168,336)"/>
<path d="M0 0 C1.36807207 0.00119412 2.73614497 0.00164447 4.10421753 0.00138855 C6.96031893 0.00294626 9.81629372 0.01118231 12.67236328 0.0246582 C16.32505236 0.04167922 19.97760312 0.04547115 23.63032722 0.04471302 C26.45109364 0.04498543 29.27183009 0.05047756 32.09258652 0.05771446 C34.09167874 0.06242154 36.09077722 0.06417193 38.08987427 0.06587219 C39.30818939 0.07225204 40.52650452 0.0786319 41.78173828 0.08520508 C42.85094513 0.08901688 43.92015198 0.09282867 45.02175903 0.09675598 C47.76395804 0.22284816 50.2600037 0.61101847 52.9296875 1.23046875 C53.4246875 3.21046875 53.4246875 3.21046875 53.9296875 5.23046875 C54.5896875 5.23046875 55.2496875 5.23046875 55.9296875 5.23046875 C55.9296875 7.21046875 55.9296875 9.19046875 55.9296875 11.23046875 C54.7540625 10.51890625 54.7540625 10.51890625 53.5546875 9.79296875 C52.04020072 8.89148852 50.5060978 8.0186739 48.9296875 7.23046875 C48.9296875 5.91046875 48.9296875 4.59046875 48.9296875 3.23046875 C26.1596875 3.23046875 3.3896875 3.23046875 -20.0703125 3.23046875 C-20.0703125 3.89046875 -20.0703125 4.55046875 -20.0703125 5.23046875 C-19.4103125 5.89046875 -18.7503125 6.55046875 -18.0703125 7.23046875 C-19.0603125 7.23046875 -20.0503125 7.23046875 -21.0703125 7.23046875 C-19.70707507 9.27044065 -19.70707507 9.27044065 -18.0703125 11.23046875 C-17.4103125 11.23046875 -16.7503125 11.23046875 -16.0703125 11.23046875 C-16.4415625 11.93171875 -16.8128125 12.63296875 -17.1953125 13.35546875 C-18.30296709 16.99490526 -17.51156659 18.78747286 -16.0703125 22.23046875 C-15.4103125 22.23046875 -14.7503125 22.23046875 -14.0703125 22.23046875 C-12.4453125 23.73046875 -12.4453125 23.73046875 -11.0703125 25.23046875 C-10.7403125 24.57046875 -10.4103125 23.91046875 -10.0703125 23.23046875 C-9.4103125 23.56046875 -8.7503125 23.89046875 -8.0703125 24.23046875 C-7.4453125 27.29296875 -7.4453125 27.29296875 -7.0703125 30.23046875 C-6.4103125 30.23046875 -5.7503125 30.23046875 -5.0703125 30.23046875 C-2.9453125 37.85546875 -2.9453125 37.85546875 -4.0703125 41.23046875 C-4.7303125 41.23046875 -5.3903125 41.23046875 -6.0703125 41.23046875 C-6.4003125 40.24046875 -6.7303125 39.25046875 -7.0703125 38.23046875 C-7.7303125 37.57046875 -8.3903125 36.91046875 -9.0703125 36.23046875 C-10.0603125 36.89046875 -11.0503125 37.55046875 -12.0703125 38.23046875 C-12.7303125 38.23046875 -13.3903125 38.23046875 -14.0703125 38.23046875 C-14.4003125 41.20046875 -14.7303125 44.17046875 -15.0703125 47.23046875 C-15.7303125 47.23046875 -16.3903125 47.23046875 -17.0703125 47.23046875 C-17.7303125 44.26046875 -18.3903125 41.29046875 -19.0703125 38.23046875 C-19.7303125 38.23046875 -20.3903125 38.23046875 -21.0703125 38.23046875 C-21.2468335 37.69043213 -21.42335449 37.15039551 -21.60522461 36.59399414 C-22.40297745 34.15928711 -23.20533129 31.72612117 -24.0078125 29.29296875 C-24.28560547 28.44283203 -24.56339844 27.59269531 -24.84960938 26.71679688 C-25.11708984 25.90791016 -25.38457031 25.09902344 -25.66015625 24.265625 C-26.02935181 23.14232788 -26.02935181 23.14232788 -26.40600586 21.99633789 C-26.93095519 20.23220894 -26.93095519 20.23220894 -28.0703125 19.23046875 C-28.86266022 15.115663 -28.86049416 11.61387285 -26.75390625 7.92578125 C-19.47182762 -0.96910674 -10.78455441 -0.05941043 0 0 Z " fill="#41403D" transform="translate(163.0703125,254.76953125)"/>
<path d="M0 0 C0 0.66 0 1.32 0 2 C0.78375 2.268125 1.5675 2.53625 2.375 2.8125 C5 4 5 4 7 7 C5.68 6.67 4.36 6.34 3 6 C3 6.33 3 6.66 3 7 C-0.64705882 12.64705882 -0.64705882 12.64705882 -2 14 C-1.67 14.99 -1.34 15.98 -1 17 C-3.97 16.67 -6.94 16.34 -10 16 C-9.79375 16.94875 -9.5875 17.8975 -9.375 18.875 C-9.25125 19.90625 -9.1275 20.9375 -9 22 C-9.66 22.66 -10.32 23.32 -11 24 C-11.99 23.67 -12.98 23.34 -14 23 C-15.31035007 19.82757352 -16 17.44118336 -16 14 C-17.43990623 11.82967524 -17.43990623 11.82967524 -19 10 C-19.45375 10.495 -19.9075 10.99 -20.375 11.5 C-22 13 -22 13 -24 13 C-24 16.3 -24 19.6 -24 23 C-24.99 23.33 -25.98 23.66 -27 24 C-27.54924305 17.36026179 -27.60206374 12.27725948 -23.53125 6.79296875 C-23.0259375 6.20128906 -22.520625 5.60960937 -22 5 C-21.5153125 4.39800781 -21.030625 3.79601562 -20.53125 3.17578125 C-15.02954331 -2.60910152 -7.27071166 -2.42357055 0 0 Z " fill="#3F403C" transform="translate(217,422)"/>
<path d="M0 0 C0.66 0.33 1.32 0.66 2 1 C1.1875 3.4375 1.1875 3.4375 0 6 C-0.99 6.33 -1.98 6.66 -3 7 C-3.80563638 9.10584438 -3.80563638 9.10584438 -4.1875 11.5625 C-4.34605469 12.38878906 -4.50460938 13.21507812 -4.66796875 14.06640625 C-4.77753906 14.70449219 -4.88710937 15.34257812 -5 16 C-6.32 16 -7.64 16 -9 16 C-9.08126109 18.72977064 -9.14061663 21.4571017 -9.1875 24.1875 C-9.21263672 24.95642578 -9.23777344 25.72535156 -9.26367188 26.51757812 C-9.3256297 31.32963578 -8.78762382 33.93471527 -6 38 C-5.8125 41.8125 -5.8125 41.8125 -6 45 C-5.01 45 -4.02 45 -3 45 C-3 46.65 -3 48.3 -3 50 C-2.01 50 -1.02 50 0 50 C0.45375 50.969375 0.9075 51.93875 1.375 52.9375 C2.65786221 56.07079582 2.65786221 56.07079582 5 57 C6.01187895 58.65948148 7.0126546 60.32580562 8 62 C8.33 62 8.66 62 9 62 C9 63.98 9 65.96 9 68 C10.32 68.33 11.64 68.66 13 69 C12.67 70.32 12.34 71.64 12 73 C-0.13453658 59.70022647 -12.16608813 45.98358167 -12.125 27.0625 C-12.12757813 25.87785156 -12.13015625 24.69320312 -12.1328125 23.47265625 C-12.0085915 20.22464257 -11.61325697 17.18796283 -11 14 C-10.34 14 -9.68 14 -9 14 C-8.7215625 12.7625 -8.7215625 12.7625 -8.4375 11.5 C-6.51131879 6.81016748 -3.45957895 3.64458317 0 0 Z " fill="#AF5453" transform="translate(228,167)"/>
<path d="M0 0 C7.07487342 -0.64317031 11.09493185 1.17264102 17 5 C17 5.66 17 6.32 17 7 C18.43554025 7.50559908 19.8735202 8.0042749 21.3125 8.5 C22.11300781 8.7784375 22.91351563 9.056875 23.73828125 9.34375 C26.08769422 10.13933107 26.08769422 10.13933107 29 10 C29 9.34 29 8.68 29 8 C29.99 8.33 30.98 8.66 32 9 C32.66 7.68 33.32 6.36 34 5 C34.495 6.98 34.495 6.98 35 9 C34.34 9.33 33.68 9.66 33 10 C32.34444881 12.52733235 32.34444881 12.52733235 32 15 C31.34 14.67 30.68 14.34 30 14 C28.39543623 16.4540387 27.93005206 17.59530118 28.4375 20.53125 C29.16328306 25.00691223 29.1067899 29.35061586 29.0625 33.875 C29.05798828 34.75414062 29.05347656 35.63328125 29.04882812 36.5390625 C29.03712337 38.69273803 29.01919069 40.84637817 29 43 C28.34 43 27.68 43 27 43 C27.12375 44.794375 27.12375 44.794375 27.25 46.625 C27.26582416 51.07158886 25.90594772 53.58123797 23 57 C22.34 57 21.68 57 21 57 C21 57.66 21 58.32 21 59 C20.34 59 19.68 59 19 59 C19.93193524 56.59250062 20.89948641 54.21612409 21.98828125 51.875 C22.34277344 51.111875 22.69726562 50.34875 23.0625 49.5625 C23.40410156 48.84191406 23.74570312 48.12132812 24.09765625 47.37890625 C27.21632875 39.15695149 27.70878143 28.12024149 24.90625 19.72265625 C20.41387608 11.01270787 14.04285102 5.61335679 5 2 C2.18551086 1.23245168 2.18551086 1.23245168 0 1 C0 0.67 0 0.34 0 0 Z " fill="#4D3D38" transform="translate(315,161)"/>
<path d="M0 0 C1.36807207 0.00119412 2.73614497 0.00164447 4.10421753 0.00138855 C6.96031893 0.00294626 9.81629372 0.01118231 12.67236328 0.0246582 C16.32505236 0.04167922 19.97760312 0.04547115 23.63032722 0.04471302 C26.45109364 0.04498543 29.27183009 0.05047756 32.09258652 0.05771446 C34.09167874 0.06242154 36.09077722 0.06417193 38.08987427 0.06587219 C39.30818939 0.07225204 40.52650452 0.0786319 41.78173828 0.08520508 C42.85094513 0.08901688 43.92015198 0.09282867 45.02175903 0.09675598 C47.76395804 0.22284816 50.2600037 0.61101847 52.9296875 1.23046875 C53.4246875 3.21046875 53.4246875 3.21046875 53.9296875 5.23046875 C54.5896875 5.23046875 55.2496875 5.23046875 55.9296875 5.23046875 C55.9296875 7.21046875 55.9296875 9.19046875 55.9296875 11.23046875 C54.7540625 10.51890625 54.7540625 10.51890625 53.5546875 9.79296875 C52.04020072 8.89148852 50.5060978 8.0186739 48.9296875 7.23046875 C48.9296875 5.91046875 48.9296875 4.59046875 48.9296875 3.23046875 C26.1596875 3.23046875 3.3896875 3.23046875 -20.0703125 3.23046875 C-20.0703125 3.89046875 -20.0703125 4.55046875 -20.0703125 5.23046875 C-19.4103125 5.89046875 -18.7503125 6.55046875 -18.0703125 7.23046875 C-20.3803125 7.23046875 -22.6903125 7.23046875 -25.0703125 7.23046875 C-22.63499825 3.52879108 -20.72965106 1.70208391 -16.41094971 0.59896851 C-10.99097618 -0.25432859 -5.47173438 -0.03014293 0 0 Z " fill="#2B2B2A" transform="translate(163.0703125,254.76953125)"/>
<path d="M0 0 C-0.33 0.66 -0.66 1.32 -1 2 C-1.99 2 -2.98 2 -4 2 C-3.34 2.33 -2.68 2.66 -2 3 C-2.33 3.99 -2.66 4.98 -3 6 C-3.33 6 -3.66 6 -4 6 C-4.33 7.32 -4.66 8.64 -5 10 C-5.66 10 -6.32 10 -7 10 C-7 10.66 -7 11.32 -7 12 C-6.34 12 -5.68 12 -5 12 C-4.34 11.34 -3.68 10.68 -3 10 C-2.67 12.31 -2.34 14.62 -2 17 C-2.99 16.67 -3.98 16.34 -5 16 C-5 17.98 -5 19.96 -5 22 C-11.70909091 20.88181818 -11.70909091 20.88181818 -14 19 C-14.79497265 16.33856984 -15.16481009 13.77430324 -15 11 C-14.34 10.01 -13.68 9.02 -13 8 C-12.34 8 -11.68 8 -11 8 C-10.34 7.34 -9.68 6.68 -9 6 C-8.67 6.66 -8.34 7.32 -8 8 C-7.34 8 -6.68 8 -6 8 C-6.99 5.36 -7.98 2.72 -9 0 C-2.25 -1.125 -2.25 -1.125 0 0 Z " fill="#4A4845" transform="translate(344,431)"/>
<path d="M0 0 C0.96631348 0.05164307 1.93262695 0.10328613 2.92822266 0.15649414 C3.9857373 0.2208667 5.04325195 0.28523926 6.1328125 0.3515625 C18.05785183 0.95572508 29.94513365 1.07068734 41.8828125 1.0390625 C42.74598083 1.03710876 43.60914917 1.03515503 44.49847412 1.03314209 C49.41829628 1.0210771 54.33804174 1.0019463 59.2578125 0.9765625 C58.9278125 1.6365625 58.5978125 2.2965625 58.2578125 2.9765625 C38.1278125 2.9765625 17.9978125 2.9765625 -2.7421875 2.9765625 C-2.0821875 4.6265625 -1.4221875 6.2765625 -0.7421875 7.9765625 C-1.1171875 10.2890625 -1.1171875 10.2890625 -1.7421875 11.9765625 C-4.70393873 11.36378638 -6.12277533 10.72283728 -8.7421875 8.9765625 C-7.7421875 6.9765625 -6.7421875 4.9765625 -5.7421875 2.9765625 C-6.7321875 2.6465625 -7.7221875 2.3165625 -8.7421875 1.9765625 C-5.63282668 0.14873245 -3.58151282 -0.2269432 0 0 Z " fill="#605F5D" transform="translate(154.7421875,268.0234375)"/>
<path d="M0 0 C1.69652458 0.00068733 1.69652458 0.00068733 3.42732239 0.00138855 C5.80662085 0.00439724 8.18591758 0.01224183 10.56518555 0.0246582 C14.20563735 0.04296174 17.845835 0.04516731 21.48632812 0.04492188 C23.80338761 0.04983605 26.12044538 0.05566393 28.4375 0.0625 C29.52403366 0.06361282 30.61056732 0.06472565 31.73002625 0.06587219 C33.25234612 0.07544197 33.25234612 0.07544197 34.80541992 0.08520508 C35.69396164 0.08901688 36.58250336 0.09282867 37.49797058 0.09675598 C40.08946835 0.23417736 42.49104852 0.65953134 45.01953125 1.23046875 C45.01953125 1.56046875 45.01953125 1.89046875 45.01953125 2.23046875 C43.88986687 2.24259903 43.88986687 2.24259903 42.73738098 2.25497437 C35.63089373 2.33300029 28.52459498 2.42031498 21.41835499 2.51799583 C17.76518851 2.56788563 14.11204991 2.61421604 10.45874023 2.65234375 C6.93135299 2.68928939 3.4042033 2.73567396 -0.12298012 2.78853226 C-2.11976472 2.81601166 -4.1166753 2.83378159 -6.11357117 2.85140991 C-7.33445938 2.8712796 -8.5553476 2.89114929 -9.81323242 2.91162109 C-11.42206551 2.9316066 -11.42206551 2.9316066 -13.06340027 2.95199585 C-16.05279932 3.23737366 -18.26838825 3.97344618 -20.98046875 5.23046875 C-20.65046875 4.24046875 -20.32046875 3.25046875 -19.98046875 2.23046875 C-13.37843686 -0.10672739 -6.94228523 -0.04616909 0 0 Z " fill="#242423" transform="translate(355.98046875,254.76953125)"/>
<path d="M0 0 C0.33 0.66 0.66 1.32 1 2 C1.556875 2.103125 2.11375 2.20625 2.6875 2.3125 C9.41533794 4.31266804 13.09298811 10.45863378 16.5859375 16.12890625 C18.5970377 20.21221743 18.92584302 23.47642405 19 28 C18.34 28 17.68 28 17 28 C16.60167969 26.77023438 16.60167969 26.77023438 16.1953125 25.515625 C15.84210938 24.43796875 15.48890625 23.3603125 15.125 22.25 C14.77695312 21.18265625 14.42890625 20.1153125 14.0703125 19.015625 C12.21262406 13.63735925 12.21262406 13.63735925 8 10 C8 9.34 8 8.68 8 8 C7.05125 7.690625 6.1025 7.38125 5.125 7.0625 C2 6 2 6 0 5 C-6.92508833 4.67023389 -13.22877026 5.58247153 -20 7 C-19.67 6.34 -19.34 5.68 -19 5 C-18.01 5 -17.02 5 -16 5 C-16 4.34 -16 3.68 -16 3 C-13.03 3 -10.06 3 -7 3 C-7 2.34 -7 1.68 -7 1 C-3.535 0.505 -3.535 0.505 0 0 Z " fill="#D26567" transform="translate(250,160)"/>
<path d="M0 0 C5.68434327 5.03470404 9.61397254 10.108213 10.3828125 17.859375 C10.67041315 28.72865228 8.87448872 36.96033954 3.875 46.5 C3.50246094 47.22703125 3.12992187 47.9540625 2.74609375 48.703125 C1.83809874 50.47255118 0.92009735 52.2368367 0 54 C-0.33 54 -0.66 54 -1 54 C-1.20086443 50.28400809 -1.1519437 49.22791555 1 46 C1.66 46 2.32 46 3 46 C3.1546875 44.205625 3.1546875 44.205625 3.3125 42.375 C3.56346429 39.46381429 4.09563312 37.82401535 5.515625 35.2109375 C7.24459893 31.4708939 7.49554623 28.29098528 7.4375 24.25 C7.43427734 23.54987793 7.43105469 22.84975586 7.42773438 22.12841797 C7.28701783 16.86003923 6.20260686 12.58867378 3.875 7.8203125 C3 6 3 6 3 4 C2.01 4 1.02 4 0 4 C0 2.68 0 1.36 0 0 Z " fill="#D86366" transform="translate(332,170)"/>
<path d="M0 0 C0.33 0 0.66 0 1 0 C1.1953125 2.05078125 1.390625 4.1015625 1.5859375 6.15234375 C1.72257812 6.76207031 1.85921875 7.37179688 2 8 C2.66 8.33 3.32 8.66 4 9 C4 9.99 4 10.98 4 12 C2.68 11.67 1.36 11.34 0 11 C0 10.34 0 9.68 0 9 C-3.73209414 10.24403138 -5.30708475 12.17243898 -8 15 C-8.5775 15.515625 -9.155 16.03125 -9.75 16.5625 C-11.14729421 17.94011233 -11.14729421 17.94011233 -11.4375 19.9375 C-12.24811041 22.90973817 -13.59265836 24.11316466 -16 26 C-19.25 26.75 -19.25 26.75 -22 27 C-17.70601159 21.8936354 -13.24648795 16.96631046 -8.69604492 12.08886719 C-6.04150199 9.26640113 -6.04150199 9.26640113 -4 6 C-3.34 6 -2.68 6 -2 6 C-1.34 4.02 -0.68 2.04 0 0 Z " fill="#5C4038" transform="translate(333,220)"/>
<path d="M0 0 C0.66 0.33 1.32 0.66 2 1 C1.1875 3.4375 1.1875 3.4375 0 6 C-0.99 6.33 -1.98 6.66 -3 7 C-3.80563638 9.10584438 -3.80563638 9.10584438 -4.1875 11.5625 C-4.34605469 12.38878906 -4.50460938 13.21507812 -4.66796875 14.06640625 C-4.77753906 14.70449219 -4.88710937 15.34257812 -5 16 C-6.32 16 -7.64 16 -9 16 C-9 23.92 -9 31.84 -9 40 C-9.66 39.67 -10.32 39.34 -11 39 C-12.14718587 35.04293483 -12.1338985 31.1602573 -12.125 27.0625 C-12.12757813 25.87785156 -12.13015625 24.69320312 -12.1328125 23.47265625 C-12.0085915 20.22464257 -11.61325697 17.18796283 -11 14 C-10.34 14 -9.68 14 -9 14 C-8.7215625 12.7625 -8.7215625 12.7625 -8.4375 11.5 C-6.51131879 6.81016748 -3.45957895 3.64458317 0 0 Z " fill="#653333" transform="translate(228,167)"/>
<path d="M0 0 C0.66 0 1.32 0 2 0 C3.72206188 2.99126319 4.24179923 5.10685713 4.1953125 8.546875 C4.18564453 9.81337891 4.18564453 9.81337891 4.17578125 11.10546875 C4.15902344 11.97816406 4.14226562 12.85085937 4.125 13.75 C4.11597656 14.63816406 4.10695313 15.52632812 4.09765625 16.44140625 C4.07414577 18.62788058 4.04128499 20.81380094 4 23 C3.34 23 2.68 23 2 23 C2.12375 24.794375 2.12375 24.794375 2.25 26.625 C2.26582416 31.07158886 0.90594772 33.58123797 -2 37 C-2.66 37 -3.32 37 -4 37 C-4 37.66 -4 38.32 -4 39 C-4.66 39 -5.32 39 -6 39 C-5.06806476 36.59250062 -4.10051359 34.21612409 -3.01171875 31.875 C-2.65722656 31.111875 -2.30273438 30.34875 -1.9375 29.5625 C-1.59589844 28.84191406 -1.25429688 28.12132812 -0.90234375 27.37890625 C1.14241244 21.98818539 1.15651289 16.51108083 1.125 10.8125 C1.12886719 10.10158203 1.13273437 9.39066406 1.13671875 8.65820312 C1.13078494 5.50438116 1.00443535 3.01330605 0 0 Z " fill="#6B3D3B" transform="translate(340,181)"/>
<path d="M0 0 C0.33 0.99 0.66 1.98 1 3 C0.01 3.99 -0.98 4.98 -2 6 C-1.67 6.66 -1.34 7.32 -1 8 C-1.804375 8.2475 -2.60875 8.495 -3.4375 8.75 C-6.171081 9.72238859 -6.171081 9.72238859 -6.8125 12.125 C-6.9053125 13.053125 -6.9053125 13.053125 -7 14 C-8.4540625 14.3403125 -8.4540625 14.3403125 -9.9375 14.6875 C-15.42034885 16.24283876 -20.95420446 18.95420446 -25 23 C-25.99 22.67 -26.98 22.34 -28 22 C-27.09378906 21.3709375 -26.18757813 20.741875 -25.25390625 20.09375 C-18.71574489 15.5127238 -12.47221727 10.91530439 -6.671875 5.3984375 C-5 4 -5 4 -3 4 C-3 3.34 -3 2.68 -3 2 C-2.01 1.34 -1.02 0.68 0 0 Z " fill="#5C4039" transform="translate(310,247)"/>
<path d="M0 0 C1.7074998 1.28062485 3.37373596 2.61767557 5 4 C5 4.66 5 5.32 5 6 C6.65 5.34 8.3 4.68 10 4 C10.99 5.485 10.99 5.485 12 7 C11.125 9.6875 11.125 9.6875 10 12 C9.67 11.01 9.34 10.02 9 9 C8.34 9 7.68 9 7 9 C7.33 9.99 7.66 10.98 8 12 C4.15941827 13.28019391 2.6601592 12.60131965 -1 11 C-2.875 8.875 -2.875 8.875 -4 7 C-3.34 6.01 -2.68 5.02 -2 4 C-1.34 4 -0.68 4 0 4 C0 4.66 0 5.32 0 6 C1.32 6.33 2.64 6.66 4 7 C4 6.34 4 5.68 4 5 C2.68 4.34 1.36 3.68 0 3 C0 2.01 0 1.02 0 0 Z M5 3 C7 4 7 4 7 4 Z " fill="#474842" transform="translate(337,160)"/>
<path d="M0 0 C4.83894059 3.2662849 4.83894059 3.2662849 5.5625 6.5625 C5 9 5 9 3.3125 10.75 C0.65856293 12.18456058 -0.95984496 13 -4 13 C-6.8125 10.5625 -6.8125 10.5625 -9 8 C-8.67 7.34 -8.34 6.68 -8 6 C-7.34 6 -6.68 6 -6 6 C-2.44620022 3.48820962 -2.44620022 3.48820962 0 0 Z " fill="#484642" transform="translate(216,220)"/>
<path d="M0 0 C1.67299959 0.65061095 3.33859237 1.32033324 5 2 C5.721875 2.268125 6.44375 2.53625 7.1875 2.8125 C9.66316401 4.43448676 9.97945845 6.27855587 11 9 C11.99 9.66 12.98 10.32 14 11 C14.51171875 13.1640625 14.51171875 13.1640625 14.6875 15.625 C14.75324219 16.44226563 14.81898438 17.25953125 14.88671875 18.1015625 C14.92410156 18.72804687 14.96148437 19.35453125 15 20 C15.66 20 16.32 20 17 20 C17.33 22.31 17.66 24.62 18 27 C20.64 27 23.28 27 26 27 C26 27.66 26 28.32 26 29 C18.50308686 29.36870065 18.50308686 29.36870065 16.2890625 27.74609375 C14.78280072 25.7057937 14.52328184 24.37321692 14.1875 21.875 C13.27634712 17.03400514 11.13754773 13.77509465 8.2421875 9.84765625 C7 8 7 8 7 6 C6.401875 5.7525 5.80375 5.505 5.1875 5.25 C2.71352479 3.83629988 1.56629745 2.34944617 0 0 Z " fill="#663A36" transform="translate(254,162)"/>
<path d="M0 0 C1.32 0.33 2.64 0.66 4 1 C4.625 3.375 4.625 3.375 5 6 C4.34 6.66 3.68 7.32 3 8 C2.67 7.67 2.34 7.34 2 7 C1.34 7.66 0.68 8.32 0 9 C-2.4375 9.75 -2.4375 9.75 -5 10 C-5.99 9.34 -6.98 8.68 -8 8 C-8 7.01 -8 6.02 -8 5 C-8.99 5.33 -9.98 5.66 -11 6 C-10.34 4.35 -9.68 2.7 -9 1 C-8.236875 1.474375 -7.47375 1.94875 -6.6875 2.4375 C-4.03589452 4.10106097 -4.03589452 4.10106097 -1 5 C-0.67 3.35 -0.34 1.7 0 0 Z M-7 5 C-6 7 -6 7 -6 7 Z " fill="#484844" transform="translate(163,311)"/>
<path d="M0 0 C0.33 0.99 0.66 1.98 1 3 C0.34 3 -0.32 3 -1 3 C-1 3.66 -1 4.32 -1 5 C-0.34 5.33 0.32 5.66 1 6 C-0.375 8.5 -0.375 8.5 -2 11 C-2.66 11 -3.32 11 -4 11 C-3.04134491 13.33075929 -3.04134491 13.33075929 0 15 C0.33 15.66 0.66 16.32 1 17 C-3.29574113 16.74730935 -5.47518229 16.4431794 -8.8125 13.625 C-11 11 -11 11 -13 8 C-12.4225 8.309375 -11.845 8.61875 -11.25 8.9375 C-9.15705816 9.92583364 -7.25464725 10.5168613 -5 11 C-5.33 10.01 -5.66 9.02 -6 8 C-5.67 7.01 -5.34 6.02 -5 5 C-4.34 5 -3.68 5 -3 5 C-2.690625 4.360625 -2.38125 3.72125 -2.0625 3.0625 C-1 1 -1 1 0 0 Z " fill="#3C3A38" transform="translate(344,442)"/>
<path d="M0 0 C0.66 0.33 1.32 0.66 2 1 C1.34 2.65 0.68 4.3 0 6 C0.66 6 1.32 6 2 6 C2.33 4.68 2.66 3.36 3 2 C3.66 2 4.32 2 5 2 C5.33 1.34 5.66 0.68 6 0 C5.67 2.31 5.34 4.62 5 7 C4.01 7 3.02 7 2 7 C1.67 7.66 1.34 8.32 1 9 C0.21625 8.979375 -0.5675 8.95875 -1.375 8.9375 C-3.98114961 8.81315937 -3.98114961 8.81315937 -6 10 C-5.95875 9.236875 -5.9175 8.47375 -5.875 7.6875 C-5.77919176 4.77281584 -5.77919176 4.77281584 -8 2 C-7.01 1.67 -6.02 1.34 -5 1 C-4.34 1.33 -3.68 1.66 -3 2 C-3 3.32 -3 4.64 -3 6 C-2.814375 4.7934375 -2.814375 4.7934375 -2.625 3.5625 C-2.41875 2.716875 -2.2125 1.87125 -2 1 C-1.34 0.67 -0.68 0.34 0 0 Z " fill="#4A4945" transform="translate(388,328)"/>
<path d="M0 0 C0.33 0 0.66 0 1 0 C1.125 6.625 1.125 6.625 0 10 C-0.09635462 12.49105024 -0.1393246 14.94740703 -0.125 17.4375 C-0.12757813 18.75621094 -0.13015625 20.07492188 -0.1328125 21.43359375 C-0.02768101 24.25668334 0.27367562 26.32918515 1 29 C1.06548492 30.58211573 1.08578381 32.16670081 1.0625 33.75 C1.05347656 34.54921875 1.04445312 35.3484375 1.03515625 36.171875 C1.02355469 36.77515625 1.01195312 37.3784375 1 38 C-3.93933349 30.59099976 -3.93466021 18.97585001 -2.32421875 10.40234375 C-1.58959474 6.92419498 -0.81635255 3.45977984 0 0 Z " fill="#222222" transform="translate(197,175)"/>
<path d="M0 0 C0.99 0 1.98 0 3 0 C3 0.66 3 1.32 3 2 C1.68 2.33 0.36 2.66 -1 3 C-1 3.66 -1 4.32 -1 5 C-0.34 5.33 0.32 5.66 1 6 C-2 8 -2 8 -4.6875 7.625 C-5.450625 7.41875 -6.21375 7.2125 -7 7 C-7 7.99 -7 8.98 -7 10 C-7.66 10 -8.32 10 -9 10 C-9.33 10.66 -9.66 11.32 -10 12 C-10.99 11.01 -11.98 10.02 -13 9 C-10.71141653 6.47517566 -8.37656871 4.96866677 -5.375 3.375 C-2.49917615 1.94660084 -2.49917615 1.94660084 0 0 Z " fill="#363632" transform="translate(223,149)"/>
<path d="M0 0 C0.33 0.66 0.66 1.32 1 2 C1.66 2.165 2.32 2.33 3 2.5 C3.66 2.665 4.32 2.83 5 3 C5.33 3.66 5.66 4.32 6 5 C5.04480469 4.97679687 4.08960938 4.95359375 3.10546875 4.9296875 C-4.85840169 4.8185268 -12.19514341 5.18265294 -20 7 C-19.67 6.34 -19.34 5.68 -19 5 C-18.01 5 -17.02 5 -16 5 C-16 4.34 -16 3.68 -16 3 C-13.03 3 -10.06 3 -7 3 C-7 2.34 -7 1.68 -7 1 C-3.535 0.505 -3.535 0.505 0 0 Z " fill="#994E4F" transform="translate(250,160)"/>
<path d="M0 0 C0.185625 0.598125 0.37125 1.19625 0.5625 1.8125 C2.65746692 5.00049313 5.54094446 5.54355556 9 7 C10.75 8.875 10.75 8.875 12 11 C12.556875 11.9075 13.11375 12.815 13.6875 13.75 C14.120625 14.4925 14.55375 15.235 15 16 C8.33692191 12.75007995 0.44904091 8.89808182 -3 2 C-2.01 1.34 -1.02 0.68 0 0 Z " fill="#A44F51" transform="translate(251,245)"/>
<path d="M0 0 C0.33 0.66 0.66 1.32 1 2 C0.67 2.99 0.34 3.98 0 5 C-0.22179785 6.89212737 -0.40614015 8.78884472 -0.5625 10.6875 C-0.64628906 11.68136719 -0.73007812 12.67523438 -0.81640625 13.69921875 C-0.87699219 14.45847656 -0.93757813 15.21773437 -1 16 C-4.7264085 17.04702186 -8.13013042 17.07442057 -12 17 C-11.67 16.34 -11.34 15.68 -11 15 C-10.03707031 14.75378906 -9.07414062 14.50757813 -8.08203125 14.25390625 C-4.76966697 13.29711444 -4.76966697 13.29711444 -3.57421875 10.21484375 C-3.28160156 9.13332031 -2.98898437 8.05179688 -2.6875 6.9375 C-1.01986755 1.01986755 -1.01986755 1.01986755 0 0 Z " fill="#753E40" transform="translate(293,175)"/>
<path d="M0 0 C2.31 0.33 4.62 0.66 7 1 C7 1.99 7 2.98 7 4 C4.69 3.67 2.38 3.34 0 3 C0 3.99 0 4.98 0 6 C-2.84498177 7.97568178 -5.88256767 9.49901406 -9 11 C-7.6957672 7.0873016 -6.21065261 4.62689759 -3 2 C-2.01 2 -1.02 2 0 2 C0 1.34 0 0.68 0 0 Z " fill="#984848" transform="translate(304,163)"/>
<path d="M0 0 C1.32 0.33 2.64 0.66 4 1 C2.10858512 3.08749458 0.21212032 5.1699937 -1.6875 7.25 C-2.21794922 7.83652344 -2.74839844 8.42304688 -3.29492188 9.02734375 C-6.33187694 12.3437732 -9.38634348 15.29143371 -13 18 C-12.75 16.125 -12.75 16.125 -12 14 C-9.9375 12.75 -9.9375 12.75 -8 12 C-8 11.34 -8 10.68 -8 10 C-7.34 10 -6.68 10 -6 10 C-5.9175 9.401875 -5.835 8.80375 -5.75 8.1875 C-4.79060637 5.38926857 -3.35950479 4.69589407 -1 3 C-0.67 2.01 -0.34 1.02 0 0 Z " fill="#D86864" transform="translate(321,231)"/>
<path d="M0 0 C7.07487342 -0.64317031 11.09493185 1.17264102 17 5 C17 5.66 17 6.32 17 7 C17.99 7.33 18.98 7.66 20 8 C20 8.66 20 9.32 20 10 C20.66 10 21.32 10 22 10 C22.33 11.65 22.66 13.3 23 15 C22.38125 14.319375 21.7625 13.63875 21.125 12.9375 C15.01250733 6.87695486 8.54657098 2.4244285 0 1 C0 0.67 0 0.34 0 0 Z " fill="#6D3E3A" transform="translate(315,161)"/>
<path d="M0 0 C8.5672802 0.03314228 14.9367285 2.08698643 22 7 C22.33 7.66 22.66 8.32 23 9 C19.31640095 8.64918104 17.23978948 8.17051697 14.1875 6 C10.5893563 3.74234121 8.20059731 3.42663369 4.05078125 3.17578125 C2 3 2 3 -1 2 C-0.67 1.34 -0.34 0.68 0 0 Z " fill="#D26B6B" transform="translate(309,161)"/>
<path d="M0 0 C0.99 0 1.98 0 3 0 C2.34 1.32 1.68 2.64 1 4 C1.66 4 2.32 4 3 4 C2.67 4.99 2.34 5.98 2 7 C-1.5625 8.1875 -1.5625 8.1875 -5 9 C-5 8.34 -5 7.68 -5 7 C-6.32 7.99 -7.64 8.98 -9 10 C-9.66 9.67 -10.32 9.34 -11 9 C-7.43569245 5.85014682 -4.59306496 3.4859916 0 2 C0 1.34 0 0.68 0 0 Z " fill="#31302E" transform="translate(292,149)"/>
<path d="M0 0 C0 0.66 0 1.32 0 2 C-1.828125 3.40234375 -1.828125 3.40234375 -4.25 4.9375 C-7.25841232 6.8595412 -10.16833989 8.82429785 -13 11 C-13.625 8.125 -13.625 8.125 -14 5 C-13.34 4.34 -12.68 3.68 -12 3 C-11.4225 3.20625 -10.845 3.4125 -10.25 3.625 C-7.71863252 4.30107426 -7.71863252 4.30107426 -4.875 2.0625 C-2 0 -2 0 0 0 Z " fill="#50534E" transform="translate(228,164)"/>
<path d="M0 0 C-1.16796875 1.4921875 -1.16796875 1.4921875 -3 3 C-5.48828125 3.2578125 -5.48828125 3.2578125 -8.3125 3.125 C-11.58323677 3.02130425 -14.25939278 3.04632014 -17.5 3.625 C-20 4 -20 4 -23 2 C-15.39701733 -0.48260659 -7.89688807 -0.18508331 0 0 Z " fill="#373736" transform="translate(318,146)"/>
<path d="M0 0 C0.66 0.33 1.32 0.66 2 1 C2 2.32 2 3.64 2 5 C-9.88 4.67 -21.76 4.34 -34 4 C-34 3.67 -34 3.34 -34 3 C-23.44 3 -12.88 3 -2 3 C-2 2.34 -2 1.68 -2 1 C-1.34 0.67 -0.68 0.34 0 0 Z " fill="#383736" transform="translate(458,232)"/>
<path d="M0 0 C0.66 0 1.32 0 2 0 C1.34 1.98 0.68 3.96 0 6 C0.66 6.66 1.32 7.32 2 8 C2.88671875 9.8046875 2.88671875 9.8046875 3.6875 11.875 C3.95949219 12.55304688 4.23148438 13.23109375 4.51171875 13.9296875 C5.07336741 16.31107782 4.76694846 17.70430191 4 20 C2.09681116 17.14521674 1.5380901 15.58058692 0.875 12.3125 C0.70742187 11.50425781 0.53984375 10.69601562 0.3671875 9.86328125 C0.24601563 9.24839844 0.12484375 8.63351562 0 8 C-0.66 8 -1.32 8 -2 8 C-2.33 6.02 -2.66 4.04 -3 2 C-2.01 2 -1.02 2 0 2 C0 1.34 0 0.68 0 0 Z " fill="#343434" transform="translate(165,341)"/>
<path d="M0 0 C4.84574638 4.29194679 9.48562007 9.27238081 10.21484375 15.97460938 C10.42611604 20.66062873 10.2584574 25.31904929 10 30 C9.67 30 9.34 30 9 30 C8.98582031 29.02160156 8.97164063 28.04320312 8.95703125 27.03515625 C8.69025195 19.70233069 8.26655497 13.89501802 4.05859375 7.63671875 C3 6 3 6 3 4 C2.01 4 1.02 4 0 4 C0 2.68 0 1.36 0 0 Z " fill="#CF686B" transform="translate(332,170)"/>
<path d="M0 0 C0.99 0.33 1.98 0.66 3 1 C3 1.99 3 2.98 3 4 C4.65 4 6.3 4 8 4 C7.67 7.3 7.34 10.6 7 14 C6.34 14 5.68 14 5 14 C4.34 11.03 3.68 8.06 3 5 C2.34 5 1.68 5 1 5 C0.67 3.35 0.34 1.7 0 0 Z " fill="#32322F" transform="translate(141,288)"/>
<path d="M0 0 C1.32 0.66 2.64 1.32 4 2 C4 4.31 4 6.62 4 9 C1.6875 9.625 1.6875 9.625 -1 10 C-1.99 9.34 -2.98 8.68 -4 8 C-3.34 7.67 -2.68 7.34 -2 7 C-2.33 6.01 -2.66 5.02 -3 4 C-1.68 4 -0.36 4 1 4 C0.67 2.68 0.34 1.36 0 0 Z " fill="#4C4C4A" transform="translate(461,226)"/>
<path d="M0 0 C1.98 0.99 1.98 0.99 4 2 C4 3.32 4 4.64 4 6 C4.66 6 5.32 6 6 6 C6.433125 7.11375 6.86625 8.2275 7.3125 9.375 C8.69911119 13.17512334 8.69911119 13.17512334 12 15 C11 17 11 17 9 18 C7.86788566 16.129287 6.74461905 14.25321809 5.625 12.375 C4.99851563 11.33085937 4.37203125 10.28671875 3.7265625 9.2109375 C2.09548847 6.17758264 0.97923167 3.29377924 0 0 Z " fill="#31302E" transform="translate(199,215)"/>
<path d="M0 0 C0.66 0 1.32 0 2 0 C3.17471352 4.11149733 2.773809 6.15674718 1 10 C0.64141484 11.32676508 0.2981424 12.65835921 0 14 C-0.99 13.67 -1.98 13.34 -3 13 C-2.68817931 11.58318366 -2.37551263 10.16655349 -2.0625 8.75 C-1.88847656 7.96109375 -1.71445312 7.1721875 -1.53515625 6.359375 C-1.052444 4.23121297 -0.53836822 2.11467158 0 0 Z " fill="#2E2D2C" transform="translate(388,294)"/>
<path d="M0 0 C2.97550031 3.0684847 3.96474513 4.46236331 4.25 8.8125 C4.1675 9.864375 4.085 10.91625 4 12 C4.99 12 5.98 12 7 12 C7 13.32 7 14.64 7 16 C4.6381477 15.05525908 3.27392163 14.4382746 1.90625 12.25 C0.87547802 9.69084197 0.59178109 7.49589377 0.375 4.75 C0.30023438 3.85796875 0.22546875 2.9659375 0.1484375 2.046875 C0.09945312 1.37140625 0.05046875 0.6959375 0 0 Z " fill="#B45C5C" transform="translate(218,200)"/>
<path d="M0 0 C0.99 0.99 1.98 1.98 3 3 C3.66 2.67 4.32 2.34 5 2 C4.67 4.31 4.34 6.62 4 9 C3.34 9 2.68 9 2 9 C1.67 9.66 1.34 10.32 1 11 C0.34 10.67 -0.32 10.34 -1 10 C-1 6.37730643 -0.90267032 3.49784747 0 0 Z " fill="#4B4A47" transform="translate(209,174)"/>
<path d="M0 0 C1.0625 1.8125 1.0625 1.8125 2 4 C1.67 4.99 1.34 5.98 1 7 C2.98 7.66 4.96 8.32 7 9 C5.02 9.99 5.02 9.99 3 11 C-0.24299151 8.61042731 -2.50902342 6.7952131 -4 3 C-3.34 2.34 -2.68 1.68 -2 1 C-2 1.66 -2 2.32 -2 3 C-1.34 3 -0.68 3 0 3 C0 2.01 0 1.02 0 0 Z " fill="#3C3C39" transform="translate(196,445)"/>
<path d="M0 0 C0.66 0.33 1.32 0.66 2 1 C1.01 2.485 1.01 2.485 0 4 C-0.66 4 -1.32 4 -2 4 C-2.33 4.99 -2.66 5.98 -3 7 C-4.99609375 8.31640625 -4.99609375 8.31640625 -7.4375 9.5625 C-10.06030591 10.91389759 -11.9031259 11.9031259 -14 14 C-14.99 13.67 -15.98 13.34 -17 13 C-16.02417969 12.31292969 -15.04835938 11.62585938 -14.04296875 10.91796875 C-12.75770492 10.00796443 -11.4725546 9.09779976 -10.1875 8.1875 C-9.22360352 7.50977539 -9.22360352 7.50977539 -8.24023438 6.81835938 C-7.61826172 6.37685547 -6.99628906 5.93535156 -6.35546875 5.48046875 C-5.78465576 5.07723389 -5.21384277 4.67399902 -4.62573242 4.25854492 C-2.93909864 2.9528538 -1.47530811 1.53783772 0 0 Z " fill="#6C3B37" transform="translate(299,256)"/>
<path d="M0 0 C6.42315889 3.50354121 11.66766554 8.10802514 16 14 C11.53534401 13.14256944 8.97555387 10.59899629 5.75 7.5625 C5.19570312 7.05912109 4.64140625 6.55574219 4.0703125 6.03710938 C2.66911794 4.73772575 1.329127 3.37301326 0 2 C0 1.34 0 0.68 0 0 Z " fill="#373635" transform="translate(231,256)"/>
<path d="M0 0 C0.78375 0.04125 1.5675 0.0825 2.375 0.125 C1.055 1.115 -0.265 2.105 -1.625 3.125 C-1.295 5.435 -0.965 7.745 -0.625 10.125 C-1.945 10.455 -3.265 10.785 -4.625 11.125 C-4.67899736 9.66707116 -4.71779177 8.20857288 -4.75 6.75 C-4.78480469 5.53183594 -4.78480469 5.53183594 -4.8203125 4.2890625 C-4.51136441 0.86591762 -3.34090594 0.15909076 0 0 Z " fill="#3B3B38" transform="translate(189.625,401.875)"/>
<path d="M0 0 C0.66 1.32 1.32 2.64 2 4 C1.67 4.99 1.34 5.98 1 7 C1.66 7.66 2.32 8.32 3 9 C2.34 9.66 1.68 10.32 1 11 C0.30251417 12.31747324 -0.36959957 13.64914193 -1 15 C-1.99 15 -2.98 15 -4 15 C-2.68 10.05 -1.36 5.1 0 0 Z " fill="#2F302D" transform="translate(380,320)"/>
<path d="M0 0 C0.99 0.33 1.98 0.66 3 1 C1.25395451 2.4630657 -0.49699453 3.9202808 -2.25 5.375 C-3.22453125 6.18710937 -4.1990625 6.99921875 -5.203125 7.8359375 C-7.4552682 9.57851757 -9.40711386 10.876416 -12 12 C-9.70920825 7.4184165 -8.52006529 5.62794494 -4 3 C-3.29875 2.4225 -2.5975 1.845 -1.875 1.25 C-0.946875 0.63125 -0.946875 0.63125 0 0 Z " fill="#CC6667" transform="translate(304,250)"/>
<path d="M0 0 C1.65 0.33 3.3 0.66 5 1 C5 1.66 5 2.32 5 3 C5.66 3.33 6.32 3.66 7 4 C5.35 4.33 3.7 4.66 2 5 C2 6.98 2 8.96 2 11 C1.01 10.67 0.02 10.34 -1 10 C-1 9.01 -1 8.02 -1 7 C-0.34 7 0.32 7 1 7 C1 6.34 1 5.68 1 5 C0.34 4.67 -0.32 4.34 -1 4 C-0.67 2.68 -0.34 1.36 0 0 Z " fill="#4E4D4A" transform="translate(204,432)"/>
<path d="M0 0 C0 1.98 0 3.96 0 6 C-1.98 6 -3.96 6 -6 6 C-6.33 6.99 -6.66 7.98 -7 9 C-7.66 9 -8.32 9 -9 9 C-7.67183131 4.6532661 -5.0855272 0 0 0 Z " fill="#343433" transform="translate(339,423)"/>
<path d="M0 0 C7.92 0.33 15.84 0.66 24 1 C24 1.33 24 1.66 24 2 C23.39003174 2.02505615 22.78006348 2.0501123 22.15161133 2.07592773 C19.37172102 2.1924058 16.5921266 2.31489632 13.8125 2.4375 C12.85279297 2.47681641 11.89308594 2.51613281 10.90429688 2.55664062 C9.97294922 2.59853516 9.04160156 2.64042969 8.08203125 2.68359375 C7.22843018 2.72025146 6.3748291 2.75690918 5.49536133 2.79467773 C2.93545406 3.00531094 0.50666757 3.44841536 -2 4 C-1.34 2.68 -0.68 1.36 0 0 Z " fill="#565551" transform="translate(152,268)"/>
<path d="M0 0 C4.04420651 1.77945087 7.46078487 4.39529673 11 7 C10.360625 7.12375 9.72125 7.2475 9.0625 7.375 C8.381875 7.58125 7.70125 7.7875 7 8 C6.67 8.66 6.34 9.32 6 10 C5.34 10 4.68 10 4 10 C4 8.02 4 6.04 4 4 C2.68 3.67 1.36 3.34 0 3 C0 2.01 0 1.02 0 0 Z " fill="#3B3734" transform="translate(253,257)"/>
<path d="M0 0 C1.2720853 3.8162559 0.47128403 5.35983836 -0.8125 9.125 C-1.16957031 10.20007813 -1.52664063 11.27515625 -1.89453125 12.3828125 C-3 15 -3 15 -5 16 C-4.91245449 14.24908981 -4.80426627 12.49920449 -4.6875 10.75 C-4.62949219 9.77546875 -4.57148438 8.8009375 -4.51171875 7.796875 C-3.87521127 4.3179486 -2.45771678 2.45771678 0 0 Z " fill="#535351" transform="translate(422,240)"/>
<path d="M0 0 C1.58467728 0.28427417 3.1677057 0.57774818 4.75 0.875 C6.07257813 1.11863281 6.07257813 1.11863281 7.421875 1.3671875 C9.86947744 1.96796264 11.80599857 2.77997117 14 4 C13.67 4.66 13.34 5.32 13 6 C11.01739401 5.57835981 9.03892755 5.13721222 7.0625 4.6875 C5.96035156 4.44386719 4.85820312 4.20023438 3.72265625 3.94921875 C2.82417969 3.63597656 1.92570313 3.32273438 1 3 C0.67 2.01 0.34 1.02 0 0 Z " fill="#313131" transform="translate(247,146)"/>
<path d="M0 0 C0 0.33 0 0.66 0 1 C-5.94 1.495 -5.94 1.495 -12 2 C-12 2.66 -12 3.32 -12 4 C-11.34 4.66 -10.68 5.32 -10 6 C-12.31 6 -14.62 6 -17 6 C-14.79509157 2.64853918 -13.3867364 1.15755927 -9.625 -0.375 C-6.01470401 -0.99746483 -3.53382047 -0.86190743 0 0 Z " fill="#262624" transform="translate(155,256)"/>
<path d="M0 0 C2.33944736 0.28730055 4.6739143 0.61936779 7 1 C5.625 3 5.625 3 4 5 C3.34 5 2.68 5 2 5 C1.34 6.32 0.68 7.64 0 9 C0 8.01 0 7.02 0 6 C-0.185625 5.13375 -0.37125 4.2675 -0.5625 3.375 C-0.706875 2.59125 -0.85125 1.8075 -1 1 C-0.67 0.67 -0.34 0.34 0 0 Z " fill="#504C4B" transform="translate(290,163)"/>
<path d="M0 0 C0.66 0.33 1.32 0.66 2 1 C2 1.66 2 2.32 2 3 C1.01 3.495 1.01 3.495 0 4 C-0.33 4.99 -0.66 5.98 -1 7 C-3.0625 7.6875 -3.0625 7.6875 -5 8 C-5.6875 6.1875 -5.6875 6.1875 -6 4 C-4.15840327 1.51384442 -2.99529289 0.99843096 0 0 Z " fill="#43403D" transform="translate(335,442)"/>
<path d="M0 0 C0.556875 0.70125 1.11375 1.4025 1.6875 2.125 C4.09124732 5.11344261 6.53810432 8.05940238 9 11 C7.68 11.33 6.36 11.66 5 12 C4 10.33333333 3 8.66666667 2 7 C1.4225 6.113125 0.845 5.22625 0.25 4.3125 C-0.1625 3.549375 -0.575 2.78625 -1 2 C-0.67 1.34 -0.34 0.68 0 0 Z " fill="#373432" transform="translate(221,224)"/>
<path d="M0 0 C1.60080151 4.00200378 0.29279692 7.04556236 -1 11 C-1.66 11 -2.32 11 -3 11 C-4.125 8.6875 -4.125 8.6875 -5 6 C-3 3 -3 3 0 2 C0 1.34 0 0.68 0 0 Z " fill="#494846" transform="translate(399,310)"/>
<path d="M0 0 C-0.55429688 0.24234375 -1.10859375 0.4846875 -1.6796875 0.734375 C-2.40414062 1.06953125 -3.12859375 1.4046875 -3.875 1.75 C-4.59429687 2.07484375 -5.31359375 2.3996875 -6.0546875 2.734375 C-8.35270613 4.22947146 -8.87653327 5.55244749 -10 8 C-12.125 8.75 -12.125 8.75 -14 9 C-14 9.66 -14 10.32 -14 11 C-14.66 10.67 -15.32 10.34 -16 10 C-15.34 9.01 -14.68 8.02 -14 7 C-13.01 7 -12.02 7 -11 7 C-10.79375 6.05125 -10.5875 5.1025 -10.375 4.125 C-9 1 -9 1 -6.0625 -0.4375 C-3 -1 -3 -1 0 0 Z " fill="#E56569" transform="translate(239,166)"/>
<path d="M0 0 C1.98 0 3.96 0 6 0 C6 0.33 6 0.66 6 1 C4.35 1 2.7 1 1 1 C1.309375 2.423125 1.309375 2.423125 1.625 3.875 C1.74875 4.90625 1.8725 5.9375 2 7 C1.34 7.66 0.68 8.32 0 9 C-0.99 8.67 -1.98 8.34 -3 8 C-4.1875 4.9375 -4.1875 4.9375 -5 2 C-3.68 2.33 -2.36 2.66 -1 3 C-0.67 2.01 -0.34 1.02 0 0 Z " fill="#2B2B28" transform="translate(206,437)"/>
<path d="M0 0 C2.77240667 1.84827112 4.84585479 3.47445044 7 6 C7 7.32 7 8.64 7 10 C7.66 10 8.32 10 9 10 C8.67 10.99 8.34 11.98 8 13 C6.66094733 11.2126038 5.32890934 9.41995047 4 7.625 C3.2575 6.62726563 2.515 5.62953125 1.75 4.6015625 C0 2 0 2 0 0 Z " fill="#6F403F" transform="translate(222,215)"/>
<path d="M0 0 C0.66 0.33 1.32 0.66 2 1 C2 4.3 2 7.6 2 11 C1.01 11.33 0.02 11.66 -1 12 C-1.02687279 10.18757948 -1.04633715 8.37504767 -1.0625 6.5625 C-1.07410156 5.55316406 -1.08570313 4.54382813 -1.09765625 3.50390625 C-1 1 -1 1 0 0 Z " fill="#1B1B1B" transform="translate(191,434)"/>
<path d="M0 0 C0.99 0.33 1.98 0.66 3 1 C3 2.32 3 3.64 3 5 C3.66 5 4.32 5 5 5 C4.67 5.99 4.34 6.98 4 8 C1.36 6.35 -1.28 4.7 -4 3 C-3.01 2.67 -2.02 2.34 -1 2 C-0.67 1.34 -0.34 0.68 0 0 Z " fill="#373633" transform="translate(261,277)"/>
<path d="M0 0 C0.515625 0.268125 1.03125 0.53625 1.5625 0.8125 C4.17196625 2.12476577 4.17196625 2.12476577 7.6875 3.4375 C8.780625 3.953125 9.87375 4.46875 11 5 C11.33 5.99 11.66 6.98 12 8 C6.73610189 7.68097587 3.55597551 4.60721435 0 1 C0 0.67 0 0.34 0 0 Z " fill="#76403E" transform="translate(266,261)"/>
<path d="M0 0 C1.32 0.33 2.64 0.66 4 1 C-1.445 4.96 -1.445 4.96 -7 9 C-7.66 8.01 -8.32 7.02 -9 6 C-8.360625 5.71125 -7.72125 5.4225 -7.0625 5.125 C-4.84793921 4.17176549 -4.84793921 4.17176549 -4 2 C-2.68 2 -1.36 2 0 2 C0 1.34 0 0.68 0 0 Z " fill="#D16464" transform="translate(288,262)"/>
<path d="M0 0 C0.89589844 0.00322266 1.79179687 0.00644531 2.71484375 0.00976562 C4.12056641 0.02233398 4.12056641 0.02233398 5.5546875 0.03515625 C6.49957031 0.03966797 7.44445312 0.04417969 8.41796875 0.04882812 C10.75527137 0.06063268 13.09244811 0.07709866 15.4296875 0.09765625 C15.4296875 0.42765625 15.4296875 0.75765625 15.4296875 1.09765625 C14.18832031 1.14664062 12.94695312 1.195625 11.66796875 1.24609375 C10.02602056 1.32115424 8.38409453 1.39670064 6.7421875 1.47265625 C5.92556641 1.50359375 5.10894531 1.53453125 4.26757812 1.56640625 C-0.07157883 1.77721549 -3.61314707 2.11504384 -7.5703125 4.09765625 C-7.2403125 3.10765625 -6.9103125 2.11765625 -6.5703125 1.09765625 C-4.16971433 -0.10264283 -2.67670601 -0.01694118 0 0 Z " fill="#292927" transform="translate(342.5703125,255.90234375)"/>
<path d="M0 0 C2.475 0.99 2.475 0.99 5 2 C5.33 4.97 5.66 7.94 6 11 C5.01 10.67 4.02 10.34 3 10 C1.69519135 6.73797837 0.78933188 3.42043815 0 0 Z " fill="#292927" transform="translate(460,222)"/>
<path d="M0 0 C0.33 0.66 0.66 1.32 1 2 C1.99 2 2.98 2 4 2 C4.33 4.31 4.66 6.62 5 9 C4.01 9.495 4.01 9.495 3 10 C3 9.34 3 8.68 3 8 C2.34 8 1.68 8 1 8 C0.67 5.36 0.34 2.72 0 0 Z " fill="#343333" transform="translate(174,336)"/>
<path d="M0 0 C0.33 1.32 0.66 2.64 1 4 C-1.31 5.98 -3.62 7.96 -6 10 C-6.66 9.67 -7.32 9.34 -8 9 C-6.85459775 7.68712379 -5.70866567 6.37470979 -4.5625 5.0625 C-3.92441406 4.33160156 -3.28632813 3.60070312 -2.62890625 2.84765625 C-1.77458541 1.87860647 -0.91348825 0.91348825 0 0 Z " fill="#6E3D3C" transform="translate(328,228)"/>
<path d="M0 0 C0.66 0.33 1.32 0.66 2 1 C1.1875 3.4375 1.1875 3.4375 0 6 C-0.99 6.33 -1.98 6.66 -3 7 C-4.66710346 8.49985609 -4.66710346 8.49985609 -6 10 C-6.33 9.34 -6.66 8.68 -7 8 C-4.69 5.36 -2.38 2.72 0 0 Z " fill="#7A4446" transform="translate(228,167)"/>
<path d="M0 0 C0.78375 0.185625 1.5675 0.37125 2.375 0.5625 C4.97089775 1.25962266 4.97089775 1.25962266 7 0 C6.67 0.99 6.34 1.98 6 3 C5.01 3.33 4.02 3.66 3 4 C2.67 4.66 2.34 5.32 2 6 C1.01 6 0.02 6 -1 6 C-0.67 4.02 -0.34 2.04 0 0 Z " fill="#3C3B38" transform="translate(384,309)"/>
<path d="M0 0 C0.66 0.33 1.32 0.66 2 1 C1.44225728 4.23490776 0.62788492 5.97855006 -2 8 C-2.99 8 -3.98 8 -5 8 C-4.67 6.68 -4.34 5.36 -4 4 C-3.34 4 -2.68 4 -2 4 C-1.34 2.68 -0.68 1.36 0 0 Z " fill="#33332F" transform="translate(207,161)"/>
<path d="M0 0 C7.57142857 4.14285714 7.57142857 4.14285714 10 7 C9.67 7.66 9.34 8.32 9 9 C8.34 8.67 7.68 8.34 7 8 C7 7.34 7 6.68 7 6 C6.030625 5.7525 5.06125 5.505 4.0625 5.25 C3.051875 4.8375 2.04125 4.425 1 4 C0.125 1.875 0.125 1.875 0 0 Z " fill="#393937" transform="translate(261,151)"/>
<path d="M0 0 C1.98 0.66 3.96 1.32 6 2 C6 3.32 6 4.64 6 6 C4.68 6 3.36 6 2 6 C1.34 4.02 0.68 2.04 0 0 Z " fill="#4C4946" transform="translate(216,448)"/>
<path d="M0 0 C0.99 0.33 1.98 0.66 3 1 C1.68 4.63 0.36 8.26 -1 12 C-1.66 12 -2.32 12 -3 12 C-2.01 8.04 -1.02 4.08 0 0 Z " fill="#232221" transform="translate(408,234)"/>
<path d="M0 0 C1.32 0 2.64 0 4 0 C3.67 1.65 3.34 3.3 3 5 C1.68 5.33 0.36 5.66 -1 6 C-1.042721 4.33388095 -1.04063832 2.66617115 -1 1 C-0.67 0.67 -0.34 0.34 0 0 Z " fill="#EA5F64" transform="translate(324,225)"/>
<path d="M0 0 C3.3 0 6.6 0 10 0 C10 0.66 10 1.32 10 2 C7.69 2 5.38 2 3 2 C3 2.66 3 3.32 3 4 C2.01 4 1.02 4 0 4 C0 2.68 0 1.36 0 0 Z " fill="#4B3935" transform="translate(240,159)"/>
<path d="M0 0 C1.52299523 2.93720508 2.80100302 5.9168649 4 9 C2.68 9.33 1.36 9.66 0 10 C-0.95024979 6.30458414 -0.95024979 3.69541586 0 0 Z " fill="#343030" transform="translate(212,206)"/>
<path d="M0 0 C0 0.66 0 1.32 0 2 C-2.87771795 3.91847864 -5.88626628 5.50079488 -9 7 C-7.53563715 2.36285097 -7.53563715 2.36285097 -5.0625 0.6875 C-3 0 -3 0 0 0 Z " fill="#A95357" transform="translate(304,167)"/>
<path d="M0 0 C0 0.66 0 1.32 0 2 C-1.32 2.33 -2.64 2.66 -4 3 C-4 3.66 -4 4.32 -4 5 C-3.34 5.33 -2.68 5.66 -2 6 C-2.99 6.33 -3.98 6.66 -5 7 C-5 6.34 -5 5.68 -5 5 C-6.32 4.67 -7.64 4.34 -9 4 C-3.375 0 -3.375 0 0 0 Z " fill="#2F2F2E" transform="translate(226,149)"/>
<path d="M0 0 C4.21195335 1.90217248 4.98355628 3.96711256 7 8 C6.01 8 5.02 8 4 8 C0 3.77142857 0 3.77142857 0 0 Z " fill="#3C3B38" transform="translate(209,231)"/>
<path d="M0 0 C0.94875 0.350625 1.8975 0.70125 2.875 1.0625 C2.215 2.7125 1.555 4.3625 0.875 6.0625 C-0.115 5.4025 -1.105 4.7425 -2.125 4.0625 C-1.135 3.0725 -0.145 2.0825 0.875 1.0625 C0.25625 1.26875 -0.3625 1.475 -1 1.6875 C-1.70125 1.81125 -2.4025 1.935 -3.125 2.0625 C-3.785 1.4025 -4.445 0.7425 -5.125 0.0625 C-3.125 -0.9375 -3.125 -0.9375 0 0 Z " fill="#4C4944" transform="translate(259.125,273.9375)"/>
<path d="M0 0 C3.63 0.66 7.26 1.32 11 2 C11 2.33 11 2.66 11 3 C7.37 3.33 3.74 3.66 0 4 C0 2.66666667 0 1.33333333 0 0 Z " fill="#51504D" transform="translate(339,267)"/>
<path d="M0 0 C3.74281699 2.38179263 6.97727468 4.74475735 10 8 C9.01 8.33 8.02 8.66 7 9 C4.33333333 6.33333333 1.66666667 3.66666667 -1 1 C-0.67 0.67 -0.34 0.34 0 0 Z " fill="#2F2D2D" transform="translate(242,248)"/>
<path d="M0 0 C0.66 0 1.32 0 2 0 C1 3 1 3 -1.875 4.5625 C-2.90625 5.036875 -3.9375 5.51125 -5 6 C-5.99 6.66 -6.98 7.32 -8 8 C-7.67 6.35 -7.34 4.7 -7 3 C-3.535 2.505 -3.535 2.505 0 2 C0 1.34 0 0.68 0 0 Z " fill="#EA6266" transform="translate(306,247)"/>
<path d="M0 0 C1.14926266 0.95421808 2.29430541 1.91352045 3.4375 2.875 C4.07558594 3.40867188 4.71367187 3.94234375 5.37109375 4.4921875 C7 6 7 6 8 8 C3.25 7.25 3.25 7.25 1 5 C0.375 2.375 0.375 2.375 0 0 Z " fill="#2B2B29" transform="translate(234,240)"/>
<path d="M0 0 C3 1 3 1 4.1875 3.0625 C4.455625 3.701875 4.72375 4.34125 5 5 C3.35 5.66 1.7 6.32 0 7 C-0.38133299 5.0085944 -0.71325582 3.00720923 -1 1 C-0.67 0.67 -0.34 0.34 0 0 Z " fill="#393836" transform="translate(342,159)"/>
<path d="M0 0 C0.66 0.66 1.32 1.32 2 2 C2.99 2 3.98 2 5 2 C4.67 3.65 4.34 5.3 4 7 C3.01 6.67 2.02 6.34 1 6 C0.67 4.02 0.34 2.04 0 0 Z M0 7 C3 8 3 8 3 8 Z " fill="#4B4A46" transform="translate(184,366)"/>
<path d="M0 0 C2 1 2 1 2.703125 2.77734375 C2.88359375 3.49019531 3.0640625 4.20304687 3.25 4.9375 C3.44078125 5.64777344 3.6315625 6.35804688 3.828125 7.08984375 C3.88484375 7.72019531 3.9415625 8.35054688 4 9 C3.34 9.66 2.68 10.32 2 11 C-0.32590854 7.36576791 -0.16265833 4.22911669 0 0 Z " fill="#2B2C29" transform="translate(163,303)"/>
<path d="M0 0 C0.99 1.32 1.98 2.64 3 4 C2.01 5.485 2.01 5.485 1 7 C0.01 6.67 -0.98 6.34 -2 6 C-2.33 5.01 -2.66 4.02 -3 3 C-2.34 3 -1.68 3 -1 3 C-0.67 2.01 -0.34 1.02 0 0 Z " fill="#3F3D39" transform="translate(213,171)"/>
<path d="M0 0 C0.66 0 1.32 0 2 0 C2.33 1.98 2.66 3.96 3 6 C2.01 6 1.02 6 0 6 C0 5.34 0 4.68 0 4 C-0.66 4 -1.32 4 -2 4 C-2 3.34 -2 2.68 -2 2 C-1.34 2 -0.68 2 0 2 C0 1.34 0 0.68 0 0 Z " fill="#4C4B47" transform="translate(285,169)"/>
<path d="M0 0 C1.32 0.99 2.64 1.98 4 3 C5.32 2.34 6.64 1.68 8 1 C6.515 3.475 6.515 3.475 5 6 C2.525 5.01 2.525 5.01 0 4 C0 2.68 0 1.36 0 0 Z " fill="#3B3A38" transform="translate(272,160)"/>
<path d="M0 0 C0.66 0 1.32 0 2 0 C1.649375 0.94875 1.29875 1.8975 0.9375 2.875 C-0.35026777 5.87060172 -0.35026777 5.87060172 1 8 C0.01 8 -0.98 8 -2 8 C-2.33 6.02 -2.66 4.04 -3 2 C-2.01 2 -1.02 2 0 2 C0 1.34 0 0.68 0 0 Z " fill="#2D2C2B" transform="translate(165,341)"/>
<path d="M0 0 C2 2 2 2 2.125 4.625 C2.08375 5.40875 2.0425 6.1925 2 7 C1.34 7 0.68 7 0 7 C0 7.99 0 8.98 0 10 C-0.66 10 -1.32 10 -2 10 C-1.34 6.7 -0.68 3.4 0 0 Z " fill="#252322" transform="translate(394,275)"/>
<path d="M0 0 C4 1 4 1 7 3 C6.67 4.32 6.34 5.64 6 7 C4.02 4.69 2.04 2.38 0 0 Z " fill="#8E4D4D" transform="translate(241,240)"/>
<path d="M0 0 C0.99 0.33 1.98 0.66 3 1 C3 3.97 3 6.94 3 10 C0.86746245 7.40386733 -0.55075623 5.36932827 -1 2 C-0.67 1.34 -0.34 0.68 0 0 Z " fill="#2F2F2E" transform="translate(173,368)"/>
<path d="M0 0 C0.99 0.33 1.98 0.66 3 1 C3.625 3.3125 3.625 3.3125 4 6 C3.01 7.485 3.01 7.485 2 9 C1.34 6.03 0.68 3.06 0 0 Z " fill="#262525" transform="translate(147,303)"/>
<path d="M0 0 C0.33 0.99 0.66 1.98 1 3 C-0.4375 5.6875 -0.4375 5.6875 -2 8 C-2.66 7.67 -3.32 7.34 -4 7 C-3.39816251 4.97954558 -2.72693904 2.97888961 -2 1 C-1.34 0.67 -0.68 0.34 0 0 Z " fill="#CC625D" transform="translate(296,173)"/>
<path d="M0 0 C0.66 0 1.32 0 2 0 C2.33 2.31 2.66 4.62 3 7 C2.01 7.495 2.01 7.495 1 8 C0.34 5.69 -0.32 3.38 -1 1 C-0.67 0.67 -0.34 0.34 0 0 Z " fill="#343433" transform="translate(153,316)"/>
<path d="M0 0 C0.99 0.33 1.98 0.66 3 1 C1.625 3.5 1.625 3.5 0 6 C-0.66 6 -1.32 6 -2 6 C-2 4.68 -2 3.36 -2 2 C-1.34 2 -0.68 2 0 2 C0 1.34 0 0.68 0 0 Z " fill="#4F4E4E" transform="translate(324,250)"/>
<path d="M0 0 C2.64752004 2.57784846 4.94432065 4.91648098 7 8 C6.01 8 5.02 8 4 8 C2.61328125 6.46875 2.61328125 6.46875 1.3125 4.5 C0.87550781 3.8503125 0.43851563 3.200625 -0.01171875 2.53125 C-0.50091797 1.77328125 -0.50091797 1.77328125 -1 1 C-0.67 0.67 -0.34 0.34 0 0 Z " fill="#2A2A2A" transform="translate(218,242)"/>
<path d="M0 0 C2.5 1.3125 2.5 1.3125 5 3 C5 3.99 5 4.98 5 6 C2.525 5.01 2.525 5.01 0 4 C0 2.68 0 1.36 0 0 Z " fill="#CD5D64" transform="translate(232,226)"/>
<path d="M0 0 C0 4.38968456 -2.12805101 5.76905739 -5 9 C-5.33 8.34 -5.66 7.68 -6 7 C-4.02 4.69 -2.04 2.38 0 0 Z " fill="#2B2B29" transform="translate(198,424)"/>
<path d="M0 0 C1.32 0.33 2.64 0.66 4 1 C4.33 2.65 4.66 4.3 5 6 C4.34 5.67 3.68 5.34 3 5 C2.01 5.33 1.02 5.66 0 6 C0 4.02 0 2.04 0 0 Z " fill="#4E4C4B" transform="translate(177,348)"/>
<path d="M0 0 C1.9375 0.75 1.9375 0.75 4 2 C4.75 4.125 4.75 4.125 5 6 C3.68 5.67 2.36 5.34 1 5 C0.67 3.35 0.34 1.7 0 0 Z " fill="#373735" transform="translate(168,321)"/>
<path d="M0 0 C2.375 0.25 2.375 0.25 5 1 C6.3125 3.0625 6.3125 3.0625 7 5 C2.25 3.125 2.25 3.125 0 2 C0 1.34 0 0.68 0 0 Z " fill="#7D4544" transform="translate(254,252)"/>
<path d="M0 0 C0.99 0.495 0.99 0.495 2 1 C2.4140625 3.06640625 2.4140625 3.06640625 2.625 5.5625 C2.69976562 6.38878906 2.77453125 7.21507812 2.8515625 8.06640625 C2.92503906 9.02353516 2.92503906 9.02353516 3 10 C2.34 10 1.68 10 1 10 C-0.04005702 6.61981469 -0.08004482 3.5219721 0 0 Z " fill="#BD5E5C" transform="translate(266,178)"/>
<path d="M0 0 C0.99 0.495 0.99 0.495 2 1 C1.01 1.495 1.01 1.495 0 2 C0 1.34 0 0.68 0 0 Z " fill="#000000" transform="translate(220,172)"/>
<path d="M0 0 C2 1 2 1 2 1 Z " fill="#000000" transform="translate(248,250)"/>
<path d="M0 0 C2 1 2 1 2 1 Z " fill="#000000" transform="translate(275,160)"/>
<path d="" fill="#000000" transform="translate(0,0)"/>
<path d="" fill="#000000" transform="translate(0,0)"/>
<path d="" fill="#000000" transform="translate(0,0)"/>
<path d="" fill="#000000" transform="translate(0,0)"/>
<path d="" fill="#000000" transform="translate(0,0)"/>
<path d="" fill="#000000" transform="translate(0,0)"/>
<path d="" fill="#000000" transform="translate(0,0)"/>
<path d="" fill="#000000" transform="translate(0,0)"/>
<path d="" fill="#000000" transform="translate(0,0)"/>
<path d="" fill="#000000" transform="translate(0,0)"/>
<path d="" fill="#000000" transform="translate(0,0)"/>
<path d="" fill="#000000" transform="translate(0,0)"/>
<path d="" fill="#000000" transform="translate(0,0)"/>
<path d="" fill="#000000" transform="translate(0,0)"/>
<path d="" fill="#000000" transform="translate(0,0)"/>
<path d="" fill="#000000" transform="translate(0,0)"/>
<path d="" fill="#000000" transform="translate(0,0)"/>
<path d="" fill="#000000" transform="translate(0,0)"/>
<path d="" fill="#000000" transform="translate(0,0)"/>
<path d="" fill="#000000" transform="translate(0,0)"/>
<path d="" fill="#000000" transform="translate(0,0)"/>
<path d="" fill="#000000" transform="translate(0,0)"/>
<path d="" fill="#000000" transform="translate(0,0)"/>
<path d="" fill="#000000" transform="translate(0,0)"/>
<path d="" fill="#000000" transform="translate(0,0)"/>
<path d="" fill="#000000" transform="translate(0,0)"/>
<path d="" fill="#000000" transform="translate(0,0)"/>
<path d="" fill="#000000" transform="translate(0,0)"/>
<path d="" fill="#000000" transform="translate(0,0)"/>
<path d="" fill="#000000" transform="translate(0,0)"/>
<path d="" fill="#000000" transform="translate(0,0)"/>
<path d="" fill="#000000" transform="translate(0,0)"/>
<path d="" fill="#000000" transform="translate(0,0)"/>
<path d="" fill="#000000" transform="translate(0,0)"/>
<path d="" fill="#000000" transform="translate(0,0)"/>
<path d="" fill="#000000" transform="translate(0,0)"/>
<path d="" fill="#000000" transform="translate(0,0)"/>
<path d="" fill="#000000" transform="translate(0,0)"/>
<path d="" fill="#000000" transform="translate(0,0)"/>
<path d="" fill="#000000" transform="translate(0,0)"/>
<path d="" fill="#000000" transform="translate(0,0)"/>
<path d="" fill="#000000" transform="translate(0,0)"/>
<path d="" fill="#000000" transform="translate(0,0)"/>
<path d="" fill="#000000" transform="translate(0,0)"/>
<path d="" fill="#000000" transform="translate(0,0)"/>
<path d="" fill="#000000" transform="translate(0,0)"/>
<path d="" fill="#000000" transform="translate(0,0)"/>
<path d="" fill="#000000" transform="translate(0,0)"/>
<path d="" fill="#000000" transform="translate(0,0)"/>
<path d="" fill="#000000" transform="translate(0,0)"/>
<path d="" fill="#000000" transform="translate(0,0)"/>
<path d="" fill="#000000" transform="translate(0,0)"/>
<path d="" fill="#000000" transform="translate(0,0)"/>
<path d="" fill="#000000" transform="translate(0,0)"/>
<path d="" fill="#000000" transform="translate(0,0)"/>
<path d="" fill="#000000" transform="translate(0,0)"/>
<path d="" fill="#000000" transform="translate(0,0)"/>
<path d="" fill="#000000" transform="translate(0,0)"/>
<path d="" fill="#000000" transform="translate(0,0)"/>
<path d="" fill="#000000" transform="translate(0,0)"/>
<path d="" fill="#000000" transform="translate(0,0)"/>
<path d="" fill="#000000" transform="translate(0,0)"/>
<path d="" fill="#000000" transform="translate(0,0)"/>
<path d="" fill="#000000" transform="translate(0,0)"/>
<path d="" fill="#000000" transform="translate(0,0)"/>
<path d="" fill="#000000" transform="translate(0,0)"/>
<path d="" fill="#000000" transform="translate(0,0)"/>
<path d="" fill="#000000" transform="translate(0,0)"/>
<path d="" fill="#000000" transform="translate(0,0)"/>
<path d="" fill="#000000" transform="translate(0,0)"/>
<path d="" fill="#000000" transform="translate(0,0)"/>
<path d="" fill="#000000" transform="translate(0,0)"/>
<path d="" fill="#000000" transform="translate(0,0)"/>
<path d="" fill="#000000" transform="translate(0,0)"/>
<path d="" fill="#000000" transform="translate(0,0)"/>
<path d="" fill="#000000" transform="translate(0,0)"/>
<path d="" fill="#000000" transform="translate(0,0)"/>
<path d="" fill="#000000" transform="translate(0,0)"/>
<path d="" fill="#000000" transform="translate(0,0)"/>
<path d="" fill="#000000" transform="translate(0,0)"/>
<path d="" fill="#000000" transform="translate(0,0)"/>
<path d="" fill="#000000" transform="translate(0,0)"/>
<path d="" fill="#000000" transform="translate(0,0)"/>
<path d="" fill="#000000" transform="translate(0,0)"/>
<path d="" fill="#000000" transform="translate(0,0)"/>
<path d="" fill="#000000" transform="translate(0,0)"/>
<path d="" fill="#000000" transform="translate(0,0)"/>
<path d="" fill="#000000" transform="translate(0,0)"/>
<path d="" fill="#000000" transform="translate(0,0)"/>
<path d="" fill="#000000" transform="translate(0,0)"/>
<path d="" fill="#000000" transform="translate(0,0)"/>
<path d="" fill="#000000" transform="translate(0,0)"/>
<path d="" fill="#000000" transform="translate(0,0)"/>
<path d="" fill="#000000" transform="translate(0,0)"/>
<path d="" fill="#000000" transform="translate(0,0)"/>
<path d="" fill="#000000" transform="translate(0,0)"/>
<path d="" fill="#000000" transform="translate(0,0)"/>
<path d="" fill="#000000" transform="translate(0,0)"/>
<path d="" fill="#000000" transform="translate(0,0)"/>
<path d="" fill="#000000" transform="translate(0,0)"/>
<path d="" fill="#000000" transform="translate(0,0)"/>
<path d="" fill="#000000" transform="translate(0,0)"/>
<path d="" fill="#000000" transform="translate(0,0)"/>
<path d="" fill="#000000" transform="translate(0,0)"/>
<path d="" fill="#000000" transform="translate(0,0)"/>
<path d="" fill="#000000" transform="translate(0,0)"/>
<path d="" fill="#000000" transform="translate(0,0)"/>
<path d="" fill="#000000" transform="translate(0,0)"/>
<path d="" fill="#000000" transform="translate(0,0)"/>
<path d="" fill="#000000" transform="translate(0,0)"/>
<path d="" fill="#000000" transform="translate(0,0)"/>
<path d="" fill="#000000" transform="translate(0,0)"/>
<path d="" fill="#000000" transform="translate(0,0)"/>
<path d="" fill="#000000" transform="translate(0,0)"/>
<path d="" fill="#000000" transform="translate(0,0)"/>
<path d="" fill="#000000" transform="translate(0,0)"/>
<path d="" fill="#000000" transform="translate(0,0)"/>
<path d="" fill="#000000" transform="translate(0,0)"/>
<path d="" fill="#000000" transform="translate(0,0)"/>
<path d="" fill="#000000" transform="translate(0,0)"/>
<path d="" fill="#000000" transform="translate(0,0)"/>
<path d="" fill="#000000" transform="translate(0,0)"/>
<path d="" fill="#000000" transform="translate(0,0)"/>
<path d="" fill="#000000" transform="translate(0,0)"/>
<path d="" fill="#000000" transform="translate(0,0)"/>
<path d="" fill="#000000" transform="translate(0,0)"/>
<path d="" fill="#000000" transform="translate(0,0)"/>
<path d="" fill="#000000" transform="translate(0,0)"/>
<path d="" fill="#000000" transform="translate(0,0)"/>
<path d="" fill="#000000" transform="translate(0,0)"/>
<path d="" fill="#000000" transform="translate(0,0)"/>
<path d="" fill="#000000" transform="translate(0,0)"/>
<path d="" fill="#000000" transform="translate(0,0)"/>
<path d="" fill="#000000" transform="translate(0,0)"/>
<path d="" fill="#000000" transform="translate(0,0)"/>
<path d="" fill="#000000" transform="translate(0,0)"/>
<path d="" fill="#000000" transform="translate(0,0)"/>
<path d="" fill="#000000" transform="translate(0,0)"/>
<path d="" fill="#000000" transform="translate(0,0)"/>
<path d="" fill="#000000" transform="translate(0,0)"/>
<path d="" fill="#000000" transform="translate(0,0)"/>
<path d="" fill="#000000" transform="translate(0,0)"/>
<path d="" fill="#000000" transform="translate(0,0)"/>
<path d="" fill="#000000" transform="translate(0,0)"/>
<path d="" fill="#000000" transform="translate(0,0)"/>
<path d="" fill="#000000" transform="translate(0,0)"/>
<path d="" fill="#000000" transform="translate(0,0)"/>
<path d="" fill="#000000" transform="translate(0,0)"/>
<path d="" fill="#000000" transform="translate(0,0)"/>
<path d="" fill="#000000" transform="translate(0,0)"/>
<path d="" fill="#000000" transform="translate(0,0)"/>
<path d="" fill="#000000" transform="translate(0,0)"/>
<path d="" fill="#000000" transform="translate(0,0)"/>
<path d="" fill="#000000" transform="translate(0,0)"/>
<path d="" fill="#000000" transform="translate(0,0)"/>
<path d="" fill="#000000" transform="translate(0,0)"/>
<path d="" fill="#000000" transform="translate(0,0)"/>
<path d="" fill="#000000" transform="translate(0,0)"/>
<path d="" fill="#000000" transform="translate(0,0)"/>
<path d="" fill="#000000" transform="translate(0,0)"/>
<path d="" fill="#000000" transform="translate(0,0)"/>
<path d="" fill="#000000" transform="translate(0,0)"/>
<path d="" fill="#000000" transform="translate(0,0)"/>
<path d="" fill="#000000" transform="translate(0,0)"/>
<path d="" fill="#000000" transform="translate(0,0)"/>
<path d="" fill="#000000" transform="translate(0,0)"/>
<path d="" fill="#000000" transform="translate(0,0)"/>
<path d="" fill="#000000" transform="translate(0,0)"/>
<path d="" fill="#000000" transform="translate(0,0)"/>
<path d="" fill="#000000" transform="translate(0,0)"/>
<path d="" fill="#000000" transform="translate(0,0)"/>
<path d="" fill="#000000" transform="translate(0,0)"/>
<path d="" fill="#000000" transform="translate(0,0)"/>
<path d="" fill="#000000" transform="translate(0,0)"/>
<path d="" fill="#000000" transform="translate(0,0)"/>
<path d="" fill="#000000" transform="translate(0,0)"/>
<path d="" fill="#000000" transform="translate(0,0)"/>
<path d="" fill="#000000" transform="translate(0,0)"/>
<path d="" fill="#000000" transform="translate(0,0)"/>
<path d="" fill="#000000" transform="translate(0,0)"/>
<path d="" fill="#000000" transform="translate(0,0)"/>
<path d="" fill="#000000" transform="translate(0,0)"/>
<path d="" fill="#000000" transform="translate(0,0)"/>
<path d="" fill="#000000" transform="translate(0,0)"/>
<path d="" fill="#000000" transform="translate(0,0)"/>
<path d="" fill="#000000" transform="translate(0,0)"/>
<path d="" fill="#000000" transform="translate(0,0)"/>
<path d="" fill="#000000" transform="translate(0,0)"/>
<path d="" fill="#000000" transform="translate(0,0)"/>
<path d="" fill="#000000" transform="translate(0,0)"/>
<path d="" fill="#000000" transform="translate(0,0)"/>
<path d="" fill="#000000" transform="translate(0,0)"/>
<path d="" fill="#000000" transform="translate(0,0)"/>
<path d="" fill="#000000" transform="translate(0,0)"/>
<path d="" fill="#000000" transform="translate(0,0)"/>
<path d="" fill="#000000" transform="translate(0,0)"/>
<path d="" fill="#000000" transform="translate(0,0)"/>
<path d="" fill="#000000" transform="translate(0,0)"/>
<path d="" fill="#000000" transform="translate(0,0)"/>
<path d="" fill="#000000" transform="translate(0,0)"/>
<path d="" fill="#000000" transform="translate(0,0)"/>
<path d="" fill="#000000" transform="translate(0,0)"/>
<path d="" fill="#000000" transform="translate(0,0)"/>
<path d="" fill="#000000" transform="translate(0,0)"/>
<path d="" fill="#000000" transform="translate(0,0)"/>
</svg>
